<svg width="676" height="52" viewBox="0 0 676 52" fill="none" xmlns="http://www.w3.org/2000/svg">
<path d="M33.5487 29.9731V30.9731H34.5487V29.9731H33.5487ZM21.3687 29.9731V28.9731H20.3687V29.9731H21.3687ZM21.3687 41.8731V42.8731H22.3687V41.8731H21.3687ZM12.3387 41.8731H11.3387V42.8731H12.3387V41.8731ZM12.3387 29.9731H13.3387V28.9731H12.3387V29.9731ZM0.228672 29.9731H-0.771328V30.9731H0.228672V29.9731ZM0.228672 21.4331V20.4331H-0.771328V21.4331H0.228672ZM12.3387 21.4331V22.4331H13.3387V21.4331H12.3387ZM12.3387 9.53312V8.53312H11.3387V9.53312H12.3387ZM21.3687 9.53312H22.3687V8.53312H21.3687V9.53312ZM21.3687 21.4331H20.3687V22.4331H21.3687V21.4331ZM33.5487 21.4331H34.5487V20.4331H33.5487V21.4331ZM33.5487 28.9731H21.3687V30.9731H33.5487V28.9731ZM20.3687 29.9731V41.8731H22.3687V29.9731H20.3687ZM21.3687 40.8731H12.3387V42.8731H21.3687V40.8731ZM13.3387 41.8731V29.9731H11.3387V41.8731H13.3387ZM12.3387 28.9731H0.228672V30.9731H12.3387V28.9731ZM1.22867 29.9731V21.4331H-0.771328V29.9731H1.22867ZM0.228672 22.4331H12.3387V20.4331H0.228672V22.4331ZM13.3387 21.4331V9.53312H11.3387V21.4331H13.3387ZM12.3387 10.5331H21.3687V8.53312H12.3387V10.5331ZM20.3687 9.53312V21.4331H22.3687V9.53312H20.3687ZM21.3687 22.4331H33.5487V20.4331H21.3687V22.4331ZM32.5487 21.4331V29.9731H34.5487V21.4331H32.5487ZM62.0458 21.1531L61.2942 20.4934L60.1038 21.8497L61.8849 22.1401L62.0458 21.1531ZM71.9158 25.9831L71.1752 26.6551L71.1815 26.662L71.9158 25.9831ZM73.1058 43.1331L73.9529 43.6646L73.9574 43.6572L73.1058 43.1331ZM66.2458 48.8731L65.8206 47.968L65.8153 47.9705L66.2458 48.8731ZM44.8258 49.7131L44.5546 50.6757L44.5626 50.6779L44.5706 50.68L44.8258 49.7131ZM36.3558 45.7931L35.4642 45.3402L35.0762 46.104L35.7715 46.6047L36.3558 45.7931ZM40.7658 37.1131L41.3658 36.3131L40.4135 35.5989L39.8742 36.6602L40.7658 37.1131ZM47.2058 40.4031L46.895 41.3536L46.9059 41.3572L46.9168 41.3605L47.2058 40.4031ZM61.4858 39.9131L62.035 40.7488L62.0432 40.7434L62.0513 40.7379L61.4858 39.9131ZM49.5858 29.2031H48.5858V30.2031H49.5858V29.2031ZM49.5858 21.7131L48.8363 21.051L48.5858 21.3347V21.7131H49.5858ZM59.6658 10.3031L60.4152 10.9652L61.8836 9.30312H59.6658V10.3031ZM38.8058 10.3031H37.8058V11.3031H38.8058V10.3031ZM38.8058 1.20312V0.203121H37.8058V1.20312H38.8058ZM73.1058 1.20312H74.1058V0.203121H73.1058V1.20312ZM73.1058 8.55312L73.8573 9.21281L74.1058 8.92975V8.55312H73.1058ZM61.8849 22.1401C66.018 22.814 69.0786 24.3445 71.1752 26.6551L72.6563 25.3111C70.1796 22.5817 66.6602 20.8923 62.2067 20.1662L61.8849 22.1401ZM71.1815 26.662C73.2806 28.9324 74.3458 31.7623 74.3458 35.2231H76.3458C76.3458 31.3106 75.1243 27.9805 72.6501 25.3043L71.1815 26.662ZM74.3458 35.2231C74.3458 37.8845 73.6506 40.3398 72.2541 42.609L73.9574 43.6572C75.5477 41.0731 76.3458 38.255 76.3458 35.2231H74.3458ZM72.2587 42.6016C70.887 44.7878 68.764 46.5855 65.8206 47.968L66.6709 49.7783C69.8875 48.2674 72.3379 46.2385 73.9529 43.6646L72.2587 42.6016ZM65.8153 47.9705C62.9522 49.336 59.3756 50.0431 55.0458 50.0431V52.0431C59.5826 52.0431 63.4727 51.3036 66.6763 49.7757L65.8153 47.9705ZM55.0458 50.0431C51.6791 50.0431 48.3582 49.6111 45.0809 48.7462L44.5706 50.68C48.0134 51.5885 51.5058 52.0431 55.0458 52.0431V50.0431ZM45.0969 48.7506C41.8744 47.8428 39.162 46.5814 36.9401 44.9816L35.7715 46.6047C38.2162 48.3649 41.1505 49.7167 44.5546 50.6757L45.0969 48.7506ZM37.2473 46.2461L41.6573 37.5661L39.8742 36.6602L35.4642 45.3402L37.2473 46.2461ZM40.1658 37.9131C42.1278 39.3847 44.3741 40.5295 46.895 41.3536L47.5165 39.4526C45.1841 38.6901 43.1371 37.6416 41.3658 36.3131L40.1658 37.9131ZM46.9168 41.3605C49.4832 42.1352 52.1006 42.5231 54.7658 42.5231V40.5231C52.2977 40.5231 49.875 40.1644 47.4948 39.4458L46.9168 41.3605ZM54.7658 42.5231C57.7232 42.5231 60.18 41.9678 62.035 40.7488L60.9366 39.0774C59.5249 40.0051 57.5017 40.5231 54.7658 40.5231V42.5231ZM62.0513 40.7379C63.9609 39.4284 64.9358 37.5543 64.9358 35.2231H62.9358C62.9358 36.9053 62.2774 38.1578 60.9202 39.0884L62.0513 40.7379ZM64.9358 35.2231C64.9358 32.9185 64.0331 31.0808 62.1921 29.8722C60.4245 28.7118 57.9001 28.2031 54.7658 28.2031V30.2031C57.7448 30.2031 59.8054 30.6978 61.0945 31.5441C62.3102 32.3422 62.9358 33.5144 62.9358 35.2231H64.9358ZM54.7658 28.2031H49.5858V30.2031H54.7658V28.2031ZM50.5858 29.2031V21.7131H48.5858V29.2031H50.5858ZM50.3352 22.3752L60.4152 10.9652L58.9163 9.64104L48.8363 21.051L50.3352 22.3752ZM59.6658 9.30312H38.8058V11.3031H59.6658V9.30312ZM39.8058 10.3031V1.20312H37.8058V10.3031H39.8058ZM38.8058 2.20312H73.1058V0.203121H38.8058V2.20312ZM72.1058 1.20312V8.55312H74.1058V1.20312H72.1058ZM72.3542 7.89344L61.2942 20.4934L62.7973 21.8128L73.8573 9.21281L72.3542 7.89344ZM114.112 24.4431L113.597 23.5856L112.035 24.5229L113.664 25.3376L114.112 24.4431ZM119.642 29.2031L118.8 29.7439L118.805 29.7509L118.81 29.7578L119.642 29.2031ZM119.012 43.9731L119.804 44.5837L119.81 44.5757L119.012 43.9731ZM111.732 49.2231L112.093 50.1555L112.105 50.1506L111.732 49.2231ZM90.0316 49.2231L89.6529 50.1487L89.6613 50.1521L89.6698 50.1554L90.0316 49.2231ZM82.8216 43.9731L82.0157 44.5652L82.0225 44.5745L82.0296 44.5836L82.8216 43.9731ZM82.1916 29.2031L81.3595 28.6484L81.3549 28.6554L81.3504 28.6624L82.1916 29.2031ZM87.7216 24.4431L88.1758 25.334L89.7627 24.525L88.2457 23.5915L87.7216 24.4431ZM83.5216 20.2431L82.6518 20.7368L82.6578 20.747L83.5216 20.2431ZM91.0816 2.11312L91.4477 3.04378L91.4608 3.03843L91.0816 2.11312ZM110.752 2.11312L110.372 3.03843L110.381 3.04215L110.391 3.04569L110.752 2.11312ZM117.472 6.94312L118.269 6.34029L117.472 6.94312ZM118.382 20.2431L119.245 20.747L119.251 20.7367L118.382 20.2431ZM95.3516 10.3731L95.973 11.1566L95.9763 11.154L95.3516 10.3731ZM95.3516 19.2631L94.7302 20.0466L95.3516 19.2631ZM106.482 19.2631L107.09 20.0567L106.482 19.2631ZM106.482 10.3731L105.857 11.154L105.865 11.1604L105.873 11.1667L106.482 10.3731ZM107.602 40.8231L108.212 41.6149L108.216 41.6125L107.602 40.8231ZM107.602 30.5331L106.991 31.325L107.002 31.3331L107.602 30.5331ZM94.2316 30.5331L93.6208 29.7413L94.2316 30.5331ZM94.2316 40.8231L93.6208 41.6149L94.2316 40.8231ZM113.664 25.3376C115.957 26.4839 117.653 27.9583 118.8 29.7439L120.483 28.6624C119.111 26.5279 117.119 24.829 114.559 23.5487L113.664 25.3376ZM118.81 29.7578C119.997 31.5388 120.602 33.6054 120.602 35.9931H122.602C122.602 33.2475 121.9 30.7874 120.474 28.6484L118.81 29.7578ZM120.602 35.9931C120.602 38.8226 119.801 41.268 118.214 43.3705L119.81 44.5757C121.675 42.1049 122.602 39.2303 122.602 35.9931H120.602ZM118.22 43.3626C116.621 45.4367 114.351 47.0893 111.358 48.2956L112.105 50.1506C115.365 48.8369 117.949 46.9896 119.804 44.5836L118.22 43.3626ZM111.37 48.2909C108.381 49.4506 104.891 50.0431 100.882 50.0431V52.0431C105.085 52.0431 108.829 51.4223 112.093 50.1554L111.37 48.2909ZM100.882 50.0431C96.8717 50.0431 93.382 49.4506 90.3933 48.2909L89.6698 50.1554C92.9345 51.4223 96.6781 52.0431 100.882 52.0431V50.0431ZM90.4102 48.2976C87.4643 47.0924 85.215 45.4401 83.6136 43.3626L82.0296 44.5836C83.8815 46.9862 86.4388 48.8338 89.6529 50.1487L90.4102 48.2976ZM83.6274 43.3811C82.0825 41.2782 81.3016 38.8291 81.3016 35.9931H79.3016C79.3016 39.2239 80.2006 42.0947 82.0157 44.5652L83.6274 43.3811ZM81.3016 35.9931C81.3016 33.598 81.8868 31.5264 83.0327 29.7439L81.3504 28.6624C79.9763 30.7999 79.3016 33.2549 79.3016 35.9931H81.3016ZM83.0236 29.7578C84.2231 27.9587 85.9276 26.4801 88.1758 25.334L87.2674 23.5522C84.7555 24.8328 82.7734 26.5276 81.3595 28.6484L83.0236 29.7578ZM88.2457 23.5915C86.5516 22.549 85.2745 21.2635 84.3853 19.7393L82.6578 20.747C83.7287 22.5828 85.2515 24.0973 87.1975 25.2948L88.2457 23.5915ZM84.3913 19.7495C83.5054 18.1887 83.0516 16.402 83.0516 14.3631H81.0516C81.0516 16.7109 81.5777 18.8442 82.6519 20.7367L84.3913 19.7495ZM83.0516 14.3631C83.0516 11.7152 83.7849 9.4579 85.2294 7.54596L83.6337 6.34029C81.9049 8.62834 81.0516 11.3177 81.0516 14.3631H83.0516ZM85.2294 7.54596C86.6881 5.61533 88.7441 4.10739 91.4477 3.04369L90.7154 1.18256C87.7257 2.35885 85.3483 4.07091 83.6337 6.34029L85.2294 7.54596ZM91.4608 3.03843C94.1658 1.92983 97.2997 1.36312 100.882 1.36312V-0.636875C97.0901 -0.636875 93.6907 -0.0369148 90.7023 1.18782L91.4608 3.03843ZM100.882 1.36312C104.512 1.36312 107.669 1.9304 110.372 3.03843L111.131 1.18782C108.141 -0.0374889 104.718 -0.636875 100.882 -0.636875V1.36312ZM110.391 3.04569C113.142 4.1107 115.218 5.61911 116.674 7.54596L118.269 6.34029C116.552 4.06713 114.148 2.35554 111.113 1.18055L110.391 3.04569ZM116.674 7.54596C118.118 9.4579 118.852 11.7152 118.852 14.3631H120.852C120.852 11.3177 119.998 8.62834 118.269 6.34029L116.674 7.54596ZM118.852 14.3631C118.852 16.402 118.398 18.1887 117.512 19.7495L119.251 20.7367C120.325 18.8442 120.852 16.7109 120.852 14.3631H118.852ZM117.518 19.7393C116.632 21.2572 115.337 22.5417 113.597 23.5856L114.626 25.3006C116.62 24.1045 118.171 22.5891 119.245 20.747L117.518 19.7393ZM100.882 7.69312C98.4314 7.69312 96.3482 8.29523 94.7269 9.59226L95.9763 11.154C97.155 10.211 98.7584 9.69312 100.882 9.69312V7.69312ZM94.7302 9.58963C93.1097 10.8748 92.3216 12.672 92.3216 14.8531H94.3216C94.3216 13.2076 94.8867 12.0181 95.973 11.1566L94.7302 9.58963ZM92.3216 14.8531C92.3216 16.9968 93.1163 18.7667 94.7302 20.0466L95.973 18.4796C94.8801 17.6129 94.3216 16.4428 94.3216 14.8531H92.3216ZM94.7302 20.0466C96.3134 21.3023 98.4014 21.8731 100.882 21.8731V19.8731C98.6951 19.8731 97.0964 19.3706 95.973 18.4796L94.7302 20.0466ZM100.882 21.8731C103.364 21.8731 105.466 21.3014 107.09 20.0567L105.873 18.4695C104.697 19.3715 103.066 19.8731 100.882 19.8731V21.8731ZM107.09 20.0567C108.753 18.7817 109.582 17.0098 109.582 14.8531H107.582C107.582 16.4298 107.01 17.5979 105.873 18.4695L107.09 20.0567ZM109.582 14.8531C109.582 12.6591 108.76 10.8598 107.09 9.57952L105.873 11.1667C107.003 12.0331 107.582 13.2205 107.582 14.8531H109.582ZM107.106 9.59226C105.482 8.29254 103.373 7.69312 100.882 7.69312V9.69312C103.057 9.69312 104.682 10.2137 105.857 11.154L107.106 9.59226ZM100.882 43.7131C103.867 43.7131 106.348 43.0529 108.212 41.6149L106.991 40.0313C105.588 41.1133 103.59 41.7131 100.882 41.7131V43.7131ZM108.216 41.6125C110.142 40.1144 111.122 38.0953 111.122 35.6431H109.122C109.122 37.4843 108.422 38.9185 106.988 40.0338L108.216 41.6125ZM111.122 35.6431C111.122 33.1899 110.14 31.1869 108.202 29.7331L107.002 31.3331C108.423 32.3994 109.122 33.803 109.122 35.6431H111.122ZM108.212 29.7413C106.348 28.3033 103.867 27.6431 100.882 27.6431V29.6431C103.59 29.6431 105.588 30.2429 106.991 31.3249L108.212 29.7413ZM100.882 27.6431C97.9388 27.6431 95.4823 28.3053 93.6208 29.7413L94.8424 31.3249C96.2475 30.2409 98.2244 29.6431 100.882 29.6431V27.6431ZM93.6208 29.7413C91.7306 31.1995 90.7816 33.2012 90.7816 35.6431H92.7816C92.7816 33.7918 93.4659 32.3868 94.8424 31.3249L93.6208 29.7413ZM90.7816 35.6431C90.7816 38.1237 91.7245 40.1521 93.6208 41.6149L94.8424 40.0313C93.4719 38.9741 92.7816 37.5492 92.7816 35.6431H90.7816ZM93.6208 41.6149C95.4823 43.0509 97.9388 43.7131 100.882 43.7131V41.7131C98.2244 41.7131 96.2475 41.1153 94.8424 40.0313L93.6208 41.6149ZM156.767 48.0331L157.301 47.1879L156.767 48.0331ZM149.277 39.3531L148.369 39.7736L148.373 39.7803L148.376 39.7869L149.277 39.3531ZM149.277 12.1231L148.374 11.6936L148.371 11.6984L149.277 12.1231ZM156.767 3.37312L157.301 4.21832L156.767 3.37312ZM178.467 3.37312L177.932 4.21832L178.467 3.37312ZM185.887 12.1231L184.979 12.5436L184.983 12.5503L184.986 12.5569L185.887 12.1231ZM185.887 39.3531L184.984 38.9236L184.981 38.9284L185.887 39.3531ZM178.467 48.0331L177.932 47.1879L178.467 48.0331ZM174.617 37.6031L173.787 37.0449L173.78 37.0555L174.617 37.6031ZM174.617 13.8031L173.78 14.3508L173.787 14.3613L174.617 13.8031ZM160.617 13.8031L159.787 13.2449L159.78 13.2555L160.617 13.8031ZM160.617 37.6031L159.78 38.1508L159.787 38.1613L160.617 37.6031ZM167.617 50.0431C163.73 50.0431 160.302 49.0852 157.301 47.1879L156.232 48.8783C159.579 50.9943 163.384 52.0431 167.617 52.0431V50.0431ZM157.301 47.1879C154.304 45.2928 151.926 42.551 150.178 38.9193L148.376 39.7869C150.267 43.7153 152.883 46.7601 156.232 48.8783L157.301 47.1879ZM150.184 38.9327C148.485 35.2664 147.617 30.8666 147.617 25.7031H145.617C145.617 31.0863 146.522 35.7865 148.369 39.7736L150.184 38.9327ZM147.617 25.7031C147.617 20.5392 148.485 16.1648 150.182 12.5478L148.371 11.6984C146.522 15.6415 145.617 20.3204 145.617 25.7031H147.617ZM150.18 12.5526C151.929 8.874 154.307 6.11145 157.301 4.21832L156.232 2.52793C152.879 4.64813 150.264 7.71891 148.374 11.6936L150.18 12.5526ZM157.301 4.21832C160.302 2.32101 163.73 1.36312 167.617 1.36312V-0.636875C163.384 -0.636875 159.579 0.411903 156.232 2.52793L157.301 4.21832ZM167.617 1.36312C171.504 1.36312 174.932 2.32101 177.932 4.21832L179.001 2.52793C175.655 0.411903 171.85 -0.636875 167.617 -0.636875V1.36312ZM177.932 4.21832C180.924 6.10986 183.277 8.8692 184.979 12.5436L186.794 11.7027C184.95 7.72371 182.357 4.64972 179.001 2.52793L177.932 4.21832ZM184.986 12.5569C186.726 16.1714 187.617 20.5425 187.617 25.7031H189.617C189.617 20.3171 188.687 15.6348 186.788 11.6893L184.986 12.5569ZM187.617 25.7031C187.617 30.8633 186.726 35.2598 184.984 38.9236L186.79 39.7826C188.687 35.7931 189.617 31.0896 189.617 25.7031H187.617ZM184.981 38.9284C183.28 42.5558 180.927 45.2944 177.932 47.1879L179.001 48.8783C182.353 46.7585 184.947 43.7105 186.792 39.7778L184.981 38.9284ZM177.932 47.1879C174.932 49.0852 171.504 50.0431 167.617 50.0431V52.0431C171.85 52.0431 175.655 50.9943 179.001 48.8783L177.932 47.1879ZM167.617 42.4531C170.952 42.4531 173.595 40.9905 175.453 38.1508L173.78 37.0555C172.279 39.3491 170.255 40.4531 167.617 40.4531V42.4531ZM175.446 38.1613C177.339 35.3478 178.207 31.1395 178.207 25.7031H176.207C176.207 31.0001 175.348 34.7251 173.787 37.0449L175.446 38.1613ZM178.207 25.7031C178.207 20.2668 177.339 16.0584 175.446 13.2449L173.787 14.3613C175.348 16.6812 176.207 20.4061 176.207 25.7031H178.207ZM175.453 13.2555C173.595 10.4158 170.952 8.95312 167.617 8.95312V10.9531C170.255 10.9531 172.279 12.0571 173.78 14.3508L175.453 13.2555ZM167.617 8.95312C164.324 8.95312 161.688 10.4193 159.787 13.2449L161.446 14.3613C162.999 12.0536 165.03 10.9531 167.617 10.9531V8.95312ZM159.78 13.2555C157.94 16.0664 157.097 20.27 157.097 25.7031H159.097C159.097 20.403 159.933 16.6732 161.453 14.3508L159.78 13.2555ZM157.097 25.7031C157.097 31.1363 157.94 35.3399 159.78 38.1508L161.453 37.0555C159.933 34.7331 159.097 31.0033 159.097 25.7031H157.097ZM159.787 38.1613C161.688 40.987 164.324 42.4531 167.617 42.4531V40.4531C165.03 40.4531 162.999 39.3526 161.446 37.0449L159.787 38.1613ZM204.276 48.0331L204.811 47.1879L204.276 48.0331ZM196.786 39.3531L195.879 39.7736L195.882 39.7803L195.885 39.7869L196.786 39.3531ZM196.786 12.1231L195.883 11.6936L195.881 11.6984L196.786 12.1231ZM204.276 3.37312L204.811 4.21832L204.276 3.37312ZM225.976 3.37312L225.442 4.21832L225.976 3.37312ZM233.396 12.1231L232.489 12.5436L232.492 12.5503L232.495 12.5569L233.396 12.1231ZM233.396 39.3531L232.493 38.9236L232.491 38.9284L233.396 39.3531ZM225.976 48.0331L225.442 47.1879L225.976 48.0331ZM222.126 37.6031L221.297 37.0449L221.29 37.0555L222.126 37.6031ZM222.126 13.8031L221.29 14.3508L221.297 14.3613L222.126 13.8031ZM208.126 13.8031L207.297 13.2449L207.29 13.2555L208.126 13.8031ZM208.126 37.6031L207.29 38.1508L207.297 38.1613L208.126 37.6031ZM215.126 50.0431C211.24 50.0431 207.811 49.0852 204.811 47.1879L203.742 48.8783C207.088 50.9943 210.893 52.0431 215.126 52.0431V50.0431ZM204.811 47.1879C201.814 45.2928 199.436 42.551 197.687 38.9193L195.885 39.7869C197.777 43.7153 200.392 46.7601 203.742 48.8783L204.811 47.1879ZM197.694 38.9327C195.995 35.2664 195.126 30.8666 195.126 25.7031H193.126C193.126 31.0863 194.031 35.7865 195.879 39.7736L197.694 38.9327ZM195.126 25.7031C195.126 20.5392 195.995 16.1648 197.692 12.5478L195.881 11.6984C194.031 15.6415 193.126 20.3204 193.126 25.7031H195.126ZM197.69 12.5526C199.439 8.874 201.817 6.11145 204.811 4.21832L203.742 2.52793C200.389 4.64813 197.774 7.71891 195.883 11.6936L197.69 12.5526ZM204.811 4.21832C207.811 2.32101 211.24 1.36312 215.126 1.36312V-0.636875C210.893 -0.636875 207.088 0.411903 203.742 2.52793L204.811 4.21832ZM215.126 1.36312C219.013 1.36312 222.442 2.32101 225.442 4.21832L226.511 2.52793C223.165 0.411903 219.36 -0.636875 215.126 -0.636875V1.36312ZM225.442 4.21832C228.433 6.10986 230.786 8.8692 232.489 12.5436L234.304 11.7027C232.46 7.72371 229.866 4.64972 226.511 2.52793L225.442 4.21832ZM232.495 12.5569C234.236 16.1714 235.126 20.5425 235.126 25.7031H237.126C237.126 20.3171 236.197 15.6348 234.297 11.6893L232.495 12.5569ZM235.126 25.7031C235.126 30.8633 234.236 35.2598 232.493 38.9236L234.3 39.7826C236.197 35.7931 237.126 31.0896 237.126 25.7031H235.126ZM232.491 38.9284C230.789 42.5558 228.436 45.2944 225.442 47.1879L226.511 48.8783C229.863 46.7585 232.457 43.7105 234.302 39.7778L232.491 38.9284ZM225.442 47.1879C222.442 49.0852 219.013 50.0431 215.126 50.0431V52.0431C219.36 52.0431 223.165 50.9943 226.511 48.8783L225.442 47.1879ZM215.126 42.4531C218.461 42.4531 221.104 40.9905 222.963 38.1508L221.29 37.0555C219.788 39.3491 217.765 40.4531 215.126 40.4531V42.4531ZM222.956 38.1613C224.849 35.3478 225.716 31.1395 225.716 25.7031H223.716C223.716 31.0001 222.857 34.7251 221.297 37.0449L222.956 38.1613ZM225.716 25.7031C225.716 20.2668 224.849 16.0584 222.956 13.2449L221.297 14.3613C222.857 16.6812 223.716 20.4061 223.716 25.7031H225.716ZM222.963 13.2555C221.104 10.4158 218.461 8.95312 215.126 8.95312V10.9531C217.765 10.9531 219.788 12.0571 221.29 14.3508L222.963 13.2555ZM215.126 8.95312C211.833 8.95312 209.198 10.4193 207.297 13.2449L208.956 14.3613C210.509 12.0536 212.54 10.9531 215.126 10.9531V8.95312ZM207.29 13.2555C205.45 16.0664 204.606 20.27 204.606 25.7031H206.606C206.606 20.403 207.443 16.6732 208.963 14.3508L207.29 13.2555ZM204.606 25.7031C204.606 31.1363 205.45 35.3399 207.29 38.1508L208.963 37.0555C207.443 34.7331 206.606 31.0033 206.606 25.7031H204.606ZM207.297 38.1613C209.198 40.987 211.833 42.4531 215.126 42.4531V40.4531C212.54 40.4531 210.509 39.3526 208.956 37.0449L207.297 38.1613ZM251.786 48.0331L252.321 47.1879L251.786 48.0331ZM244.296 39.3531L243.389 39.7736L243.392 39.7803L243.395 39.7869L244.296 39.3531ZM244.296 12.1231L243.393 11.6936L243.391 11.6984L244.296 12.1231ZM251.786 3.37312L252.321 4.21832L251.786 3.37312ZM273.486 3.37312L272.952 4.21832L273.486 3.37312ZM280.906 12.1231L279.999 12.5436L280.002 12.5503L280.005 12.5569L280.906 12.1231ZM280.906 39.3531L280.003 38.9236L280.001 38.9284L280.906 39.3531ZM273.486 48.0331L272.952 47.1879L273.486 48.0331ZM269.636 37.6031L268.806 37.0449L268.8 37.0555L269.636 37.6031ZM269.636 13.8031L268.799 14.3508L268.807 14.3613L269.636 13.8031ZM255.636 13.8031L254.806 13.2449L254.8 13.2555L255.636 13.8031ZM255.636 37.6031L254.799 38.1508L254.807 38.1613L255.636 37.6031ZM262.636 50.0431C258.749 50.0431 255.321 49.0852 252.321 47.1879L251.252 48.8783C254.598 50.9943 258.403 52.0431 262.636 52.0431V50.0431ZM252.321 47.1879C249.324 45.2928 246.946 42.551 245.197 38.9193L243.395 39.7869C245.287 43.7153 247.902 46.7601 251.252 48.8783L252.321 47.1879ZM245.204 38.9327C243.505 35.2664 242.636 30.8666 242.636 25.7031H240.636C240.636 31.0863 241.541 35.7865 243.389 39.7736L245.204 38.9327ZM242.636 25.7031C242.636 20.5392 243.505 16.1648 245.202 12.5478L243.391 11.6984C241.541 15.6415 240.636 20.3204 240.636 25.7031H242.636ZM245.199 12.5526C246.949 8.874 249.327 6.11145 252.321 4.21832L251.252 2.52793C247.899 4.64813 245.284 7.71891 243.393 11.6936L245.199 12.5526ZM252.321 4.21832C255.321 2.32101 258.749 1.36312 262.636 1.36312V-0.636875C258.403 -0.636875 254.598 0.411903 251.252 2.52793L252.321 4.21832ZM262.636 1.36312C266.523 1.36312 269.951 2.32101 272.952 4.21832L274.021 2.52793C270.674 0.411903 266.869 -0.636875 262.636 -0.636875V1.36312ZM272.952 4.21832C275.943 6.10986 278.296 8.8692 279.999 12.5436L281.814 11.7027C279.97 7.72371 277.376 4.64972 274.021 2.52793L272.952 4.21832ZM280.005 12.5569C281.746 16.1714 282.636 20.5425 282.636 25.7031H284.636C284.636 20.3171 283.707 15.6348 281.807 11.6893L280.005 12.5569ZM282.636 25.7031C282.636 30.8633 281.746 35.2598 280.003 38.9236L281.809 39.7826C283.707 35.7931 284.636 31.0896 284.636 25.7031H282.636ZM280.001 38.9284C278.299 42.5558 275.946 45.2944 272.952 47.1879L274.021 48.8783C277.373 46.7585 279.967 43.7105 281.812 39.7778L280.001 38.9284ZM272.952 47.1879C269.951 49.0852 266.523 50.0431 262.636 50.0431V52.0431C266.869 52.0431 270.674 50.9943 274.021 48.8783L272.952 47.1879ZM262.636 42.4531C265.971 42.4531 268.614 40.9905 270.473 38.1508L268.8 37.0555C267.298 39.3491 265.275 40.4531 262.636 40.4531V42.4531ZM270.466 38.1613C272.359 35.3478 273.226 31.1395 273.226 25.7031H271.226C271.226 31.0001 270.367 34.7251 268.807 37.0449L270.466 38.1613ZM273.226 25.7031C273.226 20.2668 272.359 16.0584 270.466 13.2449L268.807 14.3613C270.367 16.6812 271.226 20.4061 271.226 25.7031H273.226ZM270.473 13.2555C268.614 10.4158 265.971 8.95312 262.636 8.95312V10.9531C265.275 10.9531 267.298 12.0571 268.8 14.3508L270.473 13.2555ZM262.636 8.95312C259.343 8.95312 256.707 10.4193 254.807 13.2449L256.466 14.3613C258.018 12.0536 260.049 10.9531 262.636 10.9531V8.95312ZM254.8 13.2555C252.96 16.0664 252.116 20.27 252.116 25.7031H254.116C254.116 20.403 254.953 16.6732 256.473 14.3508L254.8 13.2555ZM252.116 25.7031C252.116 31.1363 252.96 35.3399 254.8 38.1508L256.473 37.0555C254.953 34.7331 254.116 31.0033 254.116 25.7031H252.116ZM254.807 38.1613C256.707 40.987 259.343 42.4531 262.636 42.4531V40.4531C260.049 40.4531 258.018 39.3526 256.466 37.0449L254.807 38.1613ZM319.12 48.0331L319.655 47.1879L319.12 48.0331ZM311.63 39.3531L310.723 39.7736L310.726 39.7803L310.729 39.7869L311.63 39.3531ZM311.63 12.1231L310.727 11.6936L310.725 11.6984L311.63 12.1231ZM319.12 3.37312L319.655 4.21832L319.12 3.37312ZM340.82 3.37312L340.286 4.21832L340.82 3.37312ZM348.24 12.1231L347.333 12.5436L347.336 12.5503L347.339 12.5569L348.24 12.1231ZM348.24 39.3531L347.337 38.9236L347.335 38.9284L348.24 39.3531ZM340.82 48.0331L340.286 47.1879L340.82 48.0331ZM336.97 37.6031L336.14 37.0449L336.134 37.0555L336.97 37.6031ZM336.97 13.8031L336.133 14.3508L336.141 14.3613L336.97 13.8031ZM322.97 13.8031L322.14 13.2449L322.134 13.2555L322.97 13.8031ZM322.97 37.6031L322.133 38.1508L322.141 38.1613L322.97 37.6031ZM329.97 50.0431C326.083 50.0431 322.655 49.0852 319.655 47.1879L318.586 48.8783C321.932 50.9943 325.737 52.0431 329.97 52.0431V50.0431ZM319.655 47.1879C316.658 45.2928 314.28 42.551 312.531 38.9193L310.729 39.7869C312.621 43.7153 315.236 46.7601 318.586 48.8783L319.655 47.1879ZM312.538 38.9327C310.839 35.2664 309.97 30.8666 309.97 25.7031H307.97C307.97 31.0863 308.875 35.7865 310.723 39.7736L312.538 38.9327ZM309.97 25.7031C309.97 20.5392 310.839 16.1648 312.536 12.5478L310.725 11.6984C308.875 15.6415 307.97 20.3204 307.97 25.7031H309.97ZM312.533 12.5526C314.283 8.874 316.661 6.11145 319.655 4.21832L318.586 2.52793C315.233 4.64813 312.618 7.71891 310.727 11.6936L312.533 12.5526ZM319.655 4.21832C322.655 2.32101 326.083 1.36312 329.97 1.36312V-0.636875C325.737 -0.636875 321.932 0.411903 318.586 2.52793L319.655 4.21832ZM329.97 1.36312C333.857 1.36312 337.285 2.32101 340.286 4.21832L341.355 2.52793C338.008 0.411903 334.203 -0.636875 329.97 -0.636875V1.36312ZM340.286 4.21832C343.277 6.10986 345.63 8.8692 347.333 12.5436L349.148 11.7027C347.304 7.72371 344.71 4.64972 341.355 2.52793L340.286 4.21832ZM347.339 12.5569C349.08 16.1714 349.97 20.5425 349.97 25.7031H351.97C351.97 20.3171 351.041 15.6348 349.141 11.6893L347.339 12.5569ZM349.97 25.7031C349.97 30.8633 349.08 35.2598 347.337 38.9236L349.143 39.7826C351.041 35.7931 351.97 31.0896 351.97 25.7031H349.97ZM347.335 38.9284C345.633 42.5558 343.28 45.2944 340.286 47.1879L341.355 48.8783C344.707 46.7585 347.301 43.7105 349.146 39.7778L347.335 38.9284ZM340.286 47.1879C337.285 49.0852 333.857 50.0431 329.97 50.0431V52.0431C334.203 52.0431 338.008 50.9943 341.355 48.8783L340.286 47.1879ZM329.97 42.4531C333.305 42.4531 335.948 40.9905 337.807 38.1508L336.134 37.0555C334.632 39.3491 332.609 40.4531 329.97 40.4531V42.4531ZM337.8 38.1613C339.693 35.3478 340.56 31.1395 340.56 25.7031H338.56C338.56 31.0001 337.701 34.7251 336.141 37.0449L337.8 38.1613ZM340.56 25.7031C340.56 20.2668 339.693 16.0584 337.8 13.2449L336.141 14.3613C337.701 16.6812 338.56 20.4061 338.56 25.7031H340.56ZM337.807 13.2555C335.948 10.4158 333.305 8.95312 329.97 8.95312V10.9531C332.609 10.9531 334.632 12.0571 336.134 14.3508L337.807 13.2555ZM329.97 8.95312C326.677 8.95312 324.041 10.4193 322.141 13.2449L323.8 14.3613C325.352 12.0536 327.383 10.9531 329.97 10.9531V8.95312ZM322.134 13.2555C320.294 16.0664 319.45 20.27 319.45 25.7031H321.45C321.45 20.403 322.287 16.6732 323.807 14.3508L322.134 13.2555ZM319.45 25.7031C319.45 31.1363 320.294 35.3399 322.134 38.1508L323.807 37.0555C322.287 34.7331 321.45 31.0033 321.45 25.7031H319.45ZM322.141 38.1613C324.041 40.987 326.677 42.4531 329.97 42.4531V40.4531C327.383 40.4531 325.352 39.3526 323.8 37.0449L322.141 38.1613ZM366.63 48.0331L367.164 47.1879L366.63 48.0331ZM359.14 39.3531L358.233 39.7736L358.236 39.7803L358.239 39.7869L359.14 39.3531ZM359.14 12.1231L358.237 11.6936L358.235 11.6984L359.14 12.1231ZM366.63 3.37312L367.164 4.21832L366.63 3.37312ZM388.33 3.37312L387.796 4.21832L388.33 3.37312ZM395.75 12.1231L394.843 12.5436L394.846 12.5503L394.849 12.5569L395.75 12.1231ZM395.75 39.3531L394.847 38.9236L394.845 38.9284L395.75 39.3531ZM388.33 48.0331L387.796 47.1879L388.33 48.0331ZM384.48 37.6031L383.65 37.0449L383.643 37.0555L384.48 37.6031ZM384.48 13.8031L383.643 14.3508L383.65 14.3613L384.48 13.8031ZM370.48 13.8031L369.65 13.2449L369.643 13.2555L370.48 13.8031ZM370.48 37.6031L369.643 38.1508L369.65 38.1613L370.48 37.6031ZM377.48 50.0431C373.593 50.0431 370.165 49.0852 367.164 47.1879L366.096 48.8783C369.442 50.9943 373.247 52.0431 377.48 52.0431V50.0431ZM367.164 47.1879C364.168 45.2928 361.79 42.551 360.041 38.9193L358.239 39.7869C360.13 43.7153 362.746 46.7601 366.096 48.8783L367.164 47.1879ZM360.047 38.9327C358.348 35.2664 357.48 30.8666 357.48 25.7031H355.48C355.48 31.0863 356.385 35.7865 358.233 39.7736L360.047 38.9327ZM357.48 25.7031C357.48 20.5392 358.348 16.1648 360.045 12.5478L358.235 11.6984C356.385 15.6415 355.48 20.3204 355.48 25.7031H357.48ZM360.043 12.5526C361.793 8.874 364.171 6.11145 367.164 4.21832L366.096 2.52793C362.743 4.64813 360.127 7.71891 358.237 11.6936L360.043 12.5526ZM367.164 4.21832C370.165 2.32101 373.593 1.36312 377.48 1.36312V-0.636875C373.247 -0.636875 369.442 0.411903 366.096 2.52793L367.164 4.21832ZM377.48 1.36312C381.367 1.36312 384.795 2.32101 387.796 4.21832L388.864 2.52793C385.518 0.411903 381.713 -0.636875 377.48 -0.636875V1.36312ZM387.796 4.21832C390.787 6.10986 393.14 8.8692 394.843 12.5436L396.657 11.7027C394.813 7.72371 392.22 4.64972 388.864 2.52793L387.796 4.21832ZM394.849 12.5569C396.589 16.1714 397.48 20.5425 397.48 25.7031H399.48C399.48 20.3171 398.551 15.6348 396.651 11.6893L394.849 12.5569ZM397.48 25.7031C397.48 30.8633 396.589 35.2598 394.847 38.9236L396.653 39.7826C398.551 35.7931 399.48 31.0896 399.48 25.7031H397.48ZM394.845 38.9284C393.143 42.5558 390.79 45.2944 387.796 47.1879L388.864 48.8783C392.217 46.7585 394.81 43.7105 396.655 39.7778L394.845 38.9284ZM387.796 47.1879C384.795 49.0852 381.367 50.0431 377.48 50.0431V52.0431C381.713 52.0431 385.518 50.9943 388.864 48.8783L387.796 47.1879ZM377.48 42.4531C380.815 42.4531 383.458 40.9905 385.317 38.1508L383.643 37.0555C382.142 39.3491 380.118 40.4531 377.48 40.4531V42.4531ZM385.31 38.1613C387.202 35.3478 388.07 31.1395 388.07 25.7031H386.07C386.07 31.0001 385.211 34.7251 383.65 37.0449L385.31 38.1613ZM388.07 25.7031C388.07 20.2668 387.202 16.0584 385.31 13.2449L383.65 14.3613C385.211 16.6812 386.07 20.4061 386.07 25.7031H388.07ZM385.317 13.2555C383.458 10.4158 380.815 8.95312 377.48 8.95312V10.9531C380.118 10.9531 382.142 12.0571 383.643 14.3508L385.317 13.2555ZM377.48 8.95312C374.187 8.95312 371.551 10.4193 369.65 13.2449L371.31 14.3613C372.862 12.0536 374.893 10.9531 377.48 10.9531V8.95312ZM369.643 13.2555C367.803 16.0664 366.96 20.27 366.96 25.7031H368.96C368.96 20.403 369.797 16.6732 371.317 14.3508L369.643 13.2555ZM366.96 25.7031C366.96 31.1363 367.803 35.3399 369.643 38.1508L371.317 37.0555C369.797 34.7331 368.96 31.0033 368.96 25.7031H366.96ZM369.65 38.1613C371.551 40.987 374.187 42.4531 377.48 42.4531V40.4531C374.893 40.4531 372.862 39.3526 371.31 37.0449L369.65 38.1613ZM414.14 48.0331L414.674 47.1879L414.14 48.0331ZM406.65 39.3531L405.742 39.7736L405.746 39.7803L405.749 39.7869L406.65 39.3531ZM406.65 12.1231L405.747 11.6936L405.744 11.6984L406.65 12.1231ZM414.14 3.37312L414.674 4.21832L414.14 3.37312ZM435.84 3.37312L435.305 4.21832L435.84 3.37312ZM443.26 12.1231L442.352 12.5436L442.356 12.5503L442.359 12.5569L443.26 12.1231ZM443.26 39.3531L442.357 38.9236L442.354 38.9284L443.26 39.3531ZM435.84 48.0331L435.305 47.1879L435.84 48.0331ZM431.99 37.6031L431.16 37.0449L431.153 37.0555L431.99 37.6031ZM431.99 13.8031L431.153 14.3508L431.16 14.3613L431.99 13.8031ZM417.99 13.8031L417.16 13.2449L417.153 13.2555L417.99 13.8031ZM417.99 37.6031L417.153 38.1508L417.16 38.1613L417.99 37.6031ZM424.99 50.0431C421.103 50.0431 417.675 49.0852 414.674 47.1879L413.605 48.8783C416.952 50.9943 420.757 52.0431 424.99 52.0431V50.0431ZM414.674 47.1879C411.677 45.2928 409.299 42.551 407.551 38.9193L405.749 39.7869C407.64 43.7153 410.256 46.7601 413.605 48.8783L414.674 47.1879ZM407.557 38.9327C405.858 35.2664 404.99 30.8666 404.99 25.7031H402.99C402.99 31.0863 403.895 35.7865 405.742 39.7736L407.557 38.9327ZM404.99 25.7031C404.99 20.5392 405.858 16.1648 407.555 12.5478L405.744 11.6984C403.895 15.6415 402.99 20.3204 402.99 25.7031H404.99ZM407.553 12.5526C409.302 8.874 411.68 6.11145 414.674 4.21832L413.605 2.52793C410.252 4.64813 407.637 7.71891 405.747 11.6936L407.553 12.5526ZM414.674 4.21832C417.675 2.32101 421.103 1.36312 424.99 1.36312V-0.636875C420.757 -0.636875 416.952 0.411903 413.605 2.52793L414.674 4.21832ZM424.99 1.36312C428.877 1.36312 432.305 2.32101 435.305 4.21832L436.374 2.52793C433.028 0.411903 429.223 -0.636875 424.99 -0.636875V1.36312ZM435.305 4.21832C438.297 6.10986 440.65 8.8692 442.352 12.5436L444.167 11.7027C442.323 7.72371 439.73 4.64972 436.374 2.52793L435.305 4.21832ZM442.359 12.5569C444.099 16.1714 444.99 20.5425 444.99 25.7031H446.99C446.99 20.3171 446.06 15.6348 444.161 11.6893L442.359 12.5569ZM444.99 25.7031C444.99 30.8633 444.099 35.2598 442.357 38.9236L444.163 39.7826C446.06 35.7931 446.99 31.0896 446.99 25.7031H444.99ZM442.354 38.9284C440.653 42.5558 438.3 45.2944 435.305 47.1879L436.374 48.8783C439.726 46.7585 442.32 43.7105 444.165 39.7778L442.354 38.9284ZM435.305 47.1879C432.305 49.0852 428.877 50.0431 424.99 50.0431V52.0431C429.223 52.0431 433.028 50.9943 436.374 48.8783L435.305 47.1879ZM424.99 42.4531C428.325 42.4531 430.968 40.9905 432.826 38.1508L431.153 37.0555C429.652 39.3491 427.628 40.4531 424.99 40.4531V42.4531ZM432.819 38.1613C434.712 35.3478 435.58 31.1395 435.58 25.7031H433.58C433.58 31.0001 432.721 34.7251 431.16 37.0449L432.819 38.1613ZM435.58 25.7031C435.58 20.2668 434.712 16.0584 432.819 13.2449L431.16 14.3613C432.721 16.6812 433.58 20.4061 433.58 25.7031H435.58ZM432.826 13.2555C430.968 10.4158 428.325 8.95312 424.99 8.95312V10.9531C427.628 10.9531 429.652 12.0571 431.153 14.3508L432.826 13.2555ZM424.99 8.95312C421.697 8.95312 419.061 10.4193 417.16 13.2449L418.819 14.3613C420.372 12.0536 422.403 10.9531 424.99 10.9531V8.95312ZM417.153 13.2555C415.313 16.0664 414.47 20.27 414.47 25.7031H416.47C416.47 20.403 417.306 16.6732 418.826 14.3508L417.153 13.2555ZM414.47 25.7031C414.47 31.1363 415.313 35.3399 417.153 38.1508L418.826 37.0555C417.306 34.7331 416.47 31.0033 416.47 25.7031H414.47ZM417.16 38.1613C419.061 40.987 421.697 42.4531 424.99 42.4531V40.4531C422.403 40.4531 420.372 39.3526 418.819 37.0449L417.16 38.1613ZM481.474 48.0331L482.008 47.1879L481.474 48.0331ZM473.984 39.3531L473.076 39.7736L473.08 39.7803L473.083 39.7869L473.984 39.3531ZM473.984 12.1231L473.081 11.6936L473.078 11.6984L473.984 12.1231ZM481.474 3.37312L482.008 4.21832L481.474 3.37312ZM503.174 3.37312L502.639 4.21832L503.174 3.37312ZM510.594 12.1231L509.686 12.5436L509.69 12.5503L509.693 12.5569L510.594 12.1231ZM510.594 39.3531L509.691 38.9236L509.688 38.9284L510.594 39.3531ZM503.174 48.0331L502.639 47.1879L503.174 48.0331ZM499.324 37.6031L498.494 37.0449L498.487 37.0555L499.324 37.6031ZM499.324 13.8031L498.487 14.3508L498.494 14.3613L499.324 13.8031ZM485.324 13.8031L484.494 13.2449L484.487 13.2555L485.324 13.8031ZM485.324 37.6031L484.487 38.1508L484.494 38.1613L485.324 37.6031ZM492.324 50.0431C488.437 50.0431 485.009 49.0852 482.008 47.1879L480.939 48.8783C484.286 50.9943 488.091 52.0431 492.324 52.0431V50.0431ZM482.008 47.1879C479.011 45.2928 476.633 42.551 474.885 38.9193L473.083 39.7869C474.974 43.7153 477.59 46.7601 480.939 48.8783L482.008 47.1879ZM474.891 38.9327C473.192 35.2664 472.324 30.8666 472.324 25.7031H470.324C470.324 31.0863 471.229 35.7865 473.076 39.7736L474.891 38.9327ZM472.324 25.7031C472.324 20.5392 473.192 16.1648 474.889 12.5478L473.078 11.6984C471.229 15.6415 470.324 20.3204 470.324 25.7031H472.324ZM474.887 12.5526C476.636 8.874 479.014 6.11145 482.008 4.21832L480.939 2.52793C477.586 4.64813 474.971 7.71891 473.081 11.6936L474.887 12.5526ZM482.008 4.21832C485.009 2.32101 488.437 1.36312 492.324 1.36312V-0.636875C488.091 -0.636875 484.286 0.411903 480.939 2.52793L482.008 4.21832ZM492.324 1.36312C496.211 1.36312 499.639 2.32101 502.639 4.21832L503.708 2.52793C500.362 0.411903 496.557 -0.636875 492.324 -0.636875V1.36312ZM502.639 4.21832C505.631 6.10986 507.984 8.8692 509.686 12.5436L511.501 11.7027C509.657 7.72371 507.064 4.64972 503.708 2.52793L502.639 4.21832ZM509.693 12.5569C511.433 16.1714 512.324 20.5425 512.324 25.7031H514.324C514.324 20.3171 513.394 15.6348 511.495 11.6893L509.693 12.5569ZM512.324 25.7031C512.324 30.8633 511.433 35.2598 509.691 38.9236L511.497 39.7826C513.394 35.7931 514.324 31.0896 514.324 25.7031H512.324ZM509.688 38.9284C507.987 42.5558 505.634 45.2944 502.639 47.1879L503.708 48.8783C507.06 46.7585 509.654 43.7105 511.499 39.7778L509.688 38.9284ZM502.639 47.1879C499.639 49.0852 496.211 50.0431 492.324 50.0431V52.0431C496.557 52.0431 500.362 50.9943 503.708 48.8783L502.639 47.1879ZM492.324 42.4531C495.659 42.4531 498.302 40.9905 500.16 38.1508L498.487 37.0555C496.986 39.3491 494.962 40.4531 492.324 40.4531V42.4531ZM500.153 38.1613C502.046 35.3478 502.914 31.1395 502.914 25.7031H500.914C500.914 31.0001 500.055 34.7251 498.494 37.0449L500.153 38.1613ZM502.914 25.7031C502.914 20.2668 502.046 16.0584 500.153 13.2449L498.494 14.3613C500.055 16.6812 500.914 20.4061 500.914 25.7031H502.914ZM500.16 13.2555C498.302 10.4158 495.659 8.95312 492.324 8.95312V10.9531C494.962 10.9531 496.986 12.0571 498.487 14.3508L500.16 13.2555ZM492.324 8.95312C489.031 8.95312 486.395 10.4193 484.494 13.2449L486.153 14.3613C487.706 12.0536 489.737 10.9531 492.324 10.9531V8.95312ZM484.487 13.2555C482.647 16.0664 481.804 20.27 481.804 25.7031H483.804C483.804 20.403 484.64 16.6732 486.16 14.3508L484.487 13.2555ZM481.804 25.7031C481.804 31.1363 482.647 35.3399 484.487 38.1508L486.16 37.0555C484.64 34.7331 483.804 31.0033 483.804 25.7031H481.804ZM484.494 38.1613C486.395 40.987 489.031 42.4531 492.324 42.4531V40.4531C489.737 40.4531 487.706 39.3526 486.153 37.0449L484.494 38.1613ZM548.808 48.0331L549.342 47.1879L548.808 48.0331ZM541.318 39.3531L540.41 39.7736L540.414 39.7803L540.417 39.7869L541.318 39.3531ZM541.318 12.1231L540.415 11.6936L540.412 11.6984L541.318 12.1231ZM548.808 3.37312L549.342 4.21832L548.808 3.37312ZM570.508 3.37312L569.973 4.21832L570.508 3.37312ZM577.928 12.1231L577.02 12.5436L577.024 12.5503L577.027 12.5569L577.928 12.1231ZM577.928 39.3531L577.025 38.9236L577.022 38.9284L577.928 39.3531ZM570.508 48.0331L569.973 47.1879L570.508 48.0331ZM566.658 37.6031L565.828 37.0449L565.821 37.0555L566.658 37.6031ZM566.658 13.8031L565.821 14.3508L565.828 14.3613L566.658 13.8031ZM552.658 13.8031L551.828 13.2449L551.821 13.2555L552.658 13.8031ZM552.658 37.6031L551.821 38.1508L551.828 38.1613L552.658 37.6031ZM559.658 50.0431C555.771 50.0431 552.343 49.0852 549.342 47.1879L548.273 48.8783C551.62 50.9943 555.425 52.0431 559.658 52.0431V50.0431ZM549.342 47.1879C546.345 45.2928 543.967 42.551 542.219 38.9193L540.417 39.7869C542.308 43.7153 544.924 46.7601 548.273 48.8783L549.342 47.1879ZM542.225 38.9327C540.526 35.2664 539.658 30.8666 539.658 25.7031H537.658C537.658 31.0863 538.563 35.7865 540.41 39.7736L542.225 38.9327ZM539.658 25.7031C539.658 20.5392 540.526 16.1648 542.223 12.5478L540.412 11.6984C538.563 15.6415 537.658 20.3204 537.658 25.7031H539.658ZM542.221 12.5526C543.97 8.874 546.348 6.11145 549.342 4.21832L548.273 2.52793C544.92 4.64813 542.305 7.71891 540.415 11.6936L542.221 12.5526ZM549.342 4.21832C552.343 2.32101 555.771 1.36312 559.658 1.36312V-0.636875C555.425 -0.636875 551.62 0.411903 548.273 2.52793L549.342 4.21832ZM559.658 1.36312C563.545 1.36312 566.973 2.32101 569.973 4.21832L571.042 2.52793C567.696 0.411903 563.891 -0.636875 559.658 -0.636875V1.36312ZM569.973 4.21832C572.965 6.10986 575.318 8.8692 577.02 12.5436L578.835 11.7027C576.991 7.72371 574.398 4.64972 571.042 2.52793L569.973 4.21832ZM577.027 12.5569C578.767 16.1714 579.658 20.5425 579.658 25.7031H581.658C581.658 20.3171 580.728 15.6348 578.829 11.6893L577.027 12.5569ZM579.658 25.7031C579.658 30.8633 578.767 35.2598 577.025 38.9236L578.831 39.7826C580.728 35.7931 581.658 31.0896 581.658 25.7031H579.658ZM577.022 38.9284C575.321 42.5558 572.968 45.2944 569.973 47.1879L571.042 48.8783C574.394 46.7585 576.988 43.7105 578.833 39.7778L577.022 38.9284ZM569.973 47.1879C566.973 49.0852 563.545 50.0431 559.658 50.0431V52.0431C563.891 52.0431 567.696 50.9943 571.042 48.8783L569.973 47.1879ZM559.658 42.4531C562.993 42.4531 565.636 40.9905 567.494 38.1508L565.821 37.0555C564.32 39.3491 562.296 40.4531 559.658 40.4531V42.4531ZM567.487 38.1613C569.38 35.3478 570.248 31.1395 570.248 25.7031H568.248C568.248 31.0001 567.389 34.7251 565.828 37.0449L567.487 38.1613ZM570.248 25.7031C570.248 20.2668 569.38 16.0584 567.487 13.2449L565.828 14.3613C567.389 16.6812 568.248 20.4061 568.248 25.7031H570.248ZM567.494 13.2555C565.636 10.4158 562.993 8.95312 559.658 8.95312V10.9531C562.296 10.9531 564.32 12.0571 565.821 14.3508L567.494 13.2555ZM559.658 8.95312C556.365 8.95312 553.729 10.4193 551.828 13.2449L553.487 14.3613C555.04 12.0536 557.071 10.9531 559.658 10.9531V8.95312ZM551.821 13.2555C549.981 16.0664 549.138 20.27 549.138 25.7031H551.138C551.138 20.403 551.974 16.6732 553.494 14.3508L551.821 13.2555ZM549.138 25.7031C549.138 31.1363 549.981 35.3399 551.821 38.1508L553.494 37.0555C551.974 34.7331 551.138 31.0033 551.138 25.7031H549.138ZM551.828 38.1613C553.729 40.987 556.365 42.4531 559.658 42.4531V40.4531C557.071 40.4531 555.04 39.3526 553.487 37.0449L551.828 38.1613ZM596.318 48.0331L596.852 47.1879L596.318 48.0331ZM588.828 39.3531L587.92 39.7736L587.923 39.7803L587.927 39.7869L588.828 39.3531ZM588.828 12.1231L587.924 11.6936L587.922 11.6984L588.828 12.1231ZM596.318 3.37312L596.852 4.21832L596.318 3.37312ZM618.018 3.37312L617.483 4.21832L618.018 3.37312ZM625.438 12.1231L624.53 12.5436L624.533 12.5503L624.536 12.5569L625.438 12.1231ZM625.438 39.3531L624.534 38.9236L624.532 38.9284L625.438 39.3531ZM618.018 48.0331L617.483 47.1879L618.018 48.0331ZM614.167 37.6031L613.338 37.0449L613.331 37.0555L614.167 37.6031ZM614.167 13.8031L613.331 14.3508L613.338 14.3613L614.167 13.8031ZM600.167 13.8031L599.338 13.2449L599.331 13.2555L600.167 13.8031ZM600.167 37.6031L599.331 38.1508L599.338 38.1613L600.167 37.6031ZM607.167 50.0431C603.281 50.0431 599.852 49.0852 596.852 47.1879L595.783 48.8783C599.129 50.9943 602.934 52.0431 607.167 52.0431V50.0431ZM596.852 47.1879C593.855 45.2928 591.477 42.551 589.729 38.9193L587.927 39.7869C589.818 43.7153 592.433 46.7601 595.783 48.8783L596.852 47.1879ZM589.735 38.9327C588.036 35.2664 587.167 30.8666 587.167 25.7031H585.167C585.167 31.0863 586.073 35.7865 587.92 39.7736L589.735 38.9327ZM587.167 25.7031C587.167 20.5392 588.036 16.1648 589.733 12.5478L587.922 11.6984C586.072 15.6415 585.167 20.3204 585.167 25.7031H587.167ZM589.731 12.5526C591.48 8.874 593.858 6.11145 596.852 4.21832L595.783 2.52793C592.43 4.64813 589.815 7.71891 587.924 11.6936L589.731 12.5526ZM596.852 4.21832C599.852 2.32101 603.281 1.36312 607.167 1.36312V-0.636875C602.934 -0.636875 599.129 0.411903 595.783 2.52793L596.852 4.21832ZM607.167 1.36312C611.054 1.36312 614.483 2.32101 617.483 4.21832L618.552 2.52793C615.206 0.411903 611.401 -0.636875 607.167 -0.636875V1.36312ZM617.483 4.21832C620.474 6.10986 622.827 8.8692 624.53 12.5436L626.345 11.7027C624.501 7.72371 621.907 4.64972 618.552 2.52793L617.483 4.21832ZM624.536 12.5569C626.277 16.1714 627.167 20.5425 627.167 25.7031H629.167C629.167 20.3171 628.238 15.6348 626.339 11.6893L624.536 12.5569ZM627.167 25.7031C627.167 30.8633 626.277 35.2598 624.534 38.9236L626.341 39.7826C628.238 35.7931 629.167 31.0896 629.167 25.7031H627.167ZM624.532 38.9284C622.83 42.5558 620.477 45.2944 617.483 47.1879L618.552 48.8783C621.904 46.7585 624.498 43.7105 626.343 39.7778L624.532 38.9284ZM617.483 47.1879C614.483 49.0852 611.054 50.0431 607.167 50.0431V52.0431C611.401 52.0431 615.206 50.9943 618.552 48.8783L617.483 47.1879ZM607.167 42.4531C610.502 42.4531 613.146 40.9905 615.004 38.1508L613.331 37.0555C611.83 39.3491 609.806 40.4531 607.167 40.4531V42.4531ZM614.997 38.1613C616.89 35.3478 617.758 31.1395 617.758 25.7031H615.758C615.758 31.0001 614.898 34.7251 613.338 37.0449L614.997 38.1613ZM617.758 25.7031C617.758 20.2668 616.89 16.0584 614.997 13.2449L613.338 14.3613C614.898 16.6812 615.758 20.4061 615.758 25.7031H617.758ZM615.004 13.2555C613.146 10.4158 610.502 8.95312 607.167 8.95312V10.9531C609.806 10.9531 611.83 12.0571 613.331 14.3508L615.004 13.2555ZM607.167 8.95312C603.874 8.95312 601.239 10.4193 599.338 13.2449L600.997 14.3613C602.55 12.0536 604.581 10.9531 607.167 10.9531V8.95312ZM599.331 13.2555C597.491 16.0664 596.648 20.27 596.648 25.7031H598.648C598.648 20.403 599.484 16.6732 601.004 14.3508L599.331 13.2555ZM596.648 25.7031C596.648 31.1363 597.491 35.3399 599.331 38.1508L601.004 37.0555C599.484 34.7331 598.648 31.0033 598.648 25.7031H596.648ZM599.338 38.1613C601.239 40.987 603.874 42.4531 607.167 42.4531V40.4531C604.581 40.4531 602.55 39.3526 600.997 37.0449L599.338 38.1613ZM643.827 48.0331L644.362 47.1879L643.827 48.0331ZM636.337 39.3531L635.43 39.7736L635.433 39.7803L635.436 39.7869L636.337 39.3531ZM636.337 12.1231L635.434 11.6936L635.432 11.6984L636.337 12.1231ZM643.827 3.37312L644.362 4.21832L643.827 3.37312ZM665.527 3.37312L664.993 4.21832L665.527 3.37312ZM672.947 12.1231L672.04 12.5436L672.043 12.5503L672.046 12.5569L672.947 12.1231ZM672.947 39.3531L672.044 38.9236L672.042 38.9284L672.947 39.3531ZM665.527 48.0331L664.993 47.1879L665.527 48.0331ZM661.677 37.6031L660.847 37.0449L660.841 37.0555L661.677 37.6031ZM661.677 13.8031L660.841 14.3508L660.848 14.3613L661.677 13.8031ZM647.677 13.8031L646.847 13.2449L646.841 13.2555L647.677 13.8031ZM647.677 37.6031L646.841 38.1508L646.848 38.1613L647.677 37.6031ZM654.677 50.0431C650.79 50.0431 647.362 49.0852 644.362 47.1879L643.293 48.8783C646.639 50.9943 650.444 52.0431 654.677 52.0431V50.0431ZM644.362 47.1879C641.365 45.2928 638.987 42.551 637.238 38.9193L635.436 39.7869C637.328 43.7153 639.943 46.7601 643.293 48.8783L644.362 47.1879ZM637.245 38.9327C635.546 35.2664 634.677 30.8666 634.677 25.7031H632.677C632.677 31.0863 633.582 35.7865 635.43 39.7736L637.245 38.9327ZM634.677 25.7031C634.677 20.5392 635.546 16.1648 637.243 12.5478L635.432 11.6984C633.582 15.6415 632.677 20.3204 632.677 25.7031H634.677ZM637.24 12.5526C638.99 8.874 641.368 6.11145 644.362 4.21832L643.293 2.52793C639.94 4.64813 637.325 7.71891 635.434 11.6936L637.24 12.5526ZM644.362 4.21832C647.362 2.32101 650.79 1.36312 654.677 1.36312V-0.636875C650.444 -0.636875 646.639 0.411903 643.293 2.52793L644.362 4.21832ZM654.677 1.36312C658.564 1.36312 661.992 2.32101 664.993 4.21832L666.062 2.52793C662.715 0.411903 658.91 -0.636875 654.677 -0.636875V1.36312ZM664.993 4.21832C667.984 6.10986 670.337 8.8692 672.04 12.5436L673.855 11.7027C672.011 7.72371 669.417 4.64972 666.062 2.52793L664.993 4.21832ZM672.046 12.5569C673.787 16.1714 674.677 20.5425 674.677 25.7031H676.677C676.677 20.3171 675.748 15.6348 673.848 11.6893L672.046 12.5569ZM674.677 25.7031C674.677 30.8633 673.787 35.2598 672.044 38.9236L673.85 39.7826C675.748 35.7931 676.677 31.0896 676.677 25.7031H674.677ZM672.042 38.9284C670.34 42.5558 667.987 45.2944 664.993 47.1879L666.062 48.8783C669.414 46.7585 672.008 43.7105 673.853 39.7778L672.042 38.9284ZM664.993 47.1879C661.992 49.0852 658.564 50.0431 654.677 50.0431V52.0431C658.91 52.0431 662.715 50.9943 666.062 48.8783L664.993 47.1879ZM654.677 42.4531C658.012 42.4531 660.655 40.9905 662.514 38.1508L660.841 37.0555C659.339 39.3491 657.316 40.4531 654.677 40.4531V42.4531ZM662.507 38.1613C664.4 35.3478 665.267 31.1395 665.267 25.7031H663.267C663.267 31.0001 662.408 34.7251 660.848 37.0449L662.507 38.1613ZM665.267 25.7031C665.267 20.2668 664.4 16.0584 662.507 13.2449L660.848 14.3613C662.408 16.6812 663.267 20.4061 663.267 25.7031H665.267ZM662.514 13.2555C660.655 10.4158 658.012 8.95312 654.677 8.95312V10.9531C657.316 10.9531 659.339 12.0571 660.841 14.3508L662.514 13.2555ZM654.677 8.95312C651.384 8.95312 648.748 10.4193 646.848 13.2449L648.507 14.3613C650.059 12.0536 652.09 10.9531 654.677 10.9531V8.95312ZM646.841 13.2555C645.001 16.0664 644.157 20.27 644.157 25.7031H646.157C646.157 20.403 646.994 16.6732 648.514 14.3508L646.841 13.2555ZM644.157 25.7031C644.157 31.1363 645.001 35.3399 646.841 38.1508L648.514 37.0555C646.994 34.7331 646.157 31.0033 646.157 25.7031H644.157ZM646.848 38.1613C648.748 40.987 651.384 42.4531 654.677 42.4531V40.4531C652.09 40.4531 650.059 39.3526 648.507 37.0449L646.848 38.1613Z" fill="white"/>
</svg>
