<svg width="181" height="56" viewBox="0 0 181 56" fill="none" xmlns="http://www.w3.org/2000/svg">
<path d="M0.893807 26.1706C0.893807 18.5091 0.893807 10.8481 0.893807 3.18745C0.893807 0.764881 0.911586 0.773211 3.30894 0.781541C5.63382 0.789871 7.96827 0.767658 10.2986 0.781541C11.8672 0.7982 12.0546 0.992561 12.06 2.56966C12.0724 6.6679 12.06 10.7606 12.0737 14.8616C12.0737 16.4304 12.2802 16.6386 13.8146 16.3887C18.6217 15.6182 23.4465 15.1393 28.3219 15.3697C32.054 15.5502 35.2514 16.9343 37.4463 20.0524C38.4351 21.4574 39.2488 23.1275 39.6344 24.799C40.8557 30.012 41.4355 35.2973 40.1596 40.6144C39.7821 42.186 39.4334 43.7742 38.9206 45.3041C38.0445 47.9352 36.3836 50.2243 34.1682 51.854C31.6177 53.7685 28.7226 54.7348 25.5895 55.2692C21.551 55.9634 17.5563 55.8981 13.5466 55.2692C11.1916 54.8958 8.80522 54.5987 6.51317 53.9643C4.76951 53.4797 3.1421 52.5426 1.4928 51.743C1.2398 51.6194 1.04971 51.1724 0.99911 50.8475C0.914495 50.2202 0.879282 49.5869 0.893807 48.9539C0.893807 41.3544 0.893807 33.76 0.893807 26.1706ZM12.0669 35.357C12.0669 36.823 12.0669 38.2886 12.0669 39.7537C12.0669 41.5585 12.0587 43.3508 12.0929 45.1486C12.1052 45.8191 12.2173 46.3814 13.0611 46.6549C16.2065 47.6711 19.3834 47.6267 22.5958 47.1172C27.2264 46.38 29.3886 43.3036 29.5554 38.8555C29.658 36.0955 29.5554 33.3287 29.5896 30.566C29.6047 29.0527 29.2436 27.6394 28.4203 26.4108C28.0196 25.8138 27.3892 25.1461 26.7505 24.9906C25.0963 24.5809 23.4075 24.3317 21.7069 24.2465C19.1195 24.1298 16.5224 24.2131 13.9309 24.2187C12.3513 24.2187 12.071 24.513 12.0669 26.1623C12.0623 29.2286 12.0623 32.2935 12.0669 35.357Z" fill="#2A2C31"/>
<path d="M112.821 38.5983C112.821 42.6623 112.821 46.7259 112.821 50.7889C112.821 51.7233 112.317 52.4452 111.165 52.7325C108.944 53.2781 106.706 53.7724 104.456 54.175C102.008 54.6137 99.5491 55.0371 97.071 55.2676C92.9218 55.6521 88.7425 56.0103 84.6261 55.0968C80.775 54.243 77.7882 52.2994 76.4754 48.197C75.5181 45.208 75.4456 42.1898 75.9694 39.2175C76.4494 36.4937 77.9852 34.2766 80.5767 32.9924C83.662 31.4653 86.9715 31.0488 90.3303 31.0488C93.8053 31.0488 97.2816 31.2182 100.757 31.3445C102.23 31.3973 102.493 31.1932 102.469 29.666C102.455 28.8039 102.452 27.9251 102.294 27.0824C102.078 25.9426 101.443 25.0403 100.242 24.8126C98.8967 24.5571 97.5319 24.2711 96.1712 24.2489C91.6103 24.1781 87.0467 24.2267 82.4859 24.2142C81.0061 24.2142 80.7668 23.9463 80.7655 22.4664C80.7655 21.2669 80.8174 20.0646 80.7463 18.8693C80.682 17.7684 81.132 17.1353 82.17 16.9673C84.1434 16.6466 86.1263 16.3829 88.1025 16.076C92.5525 15.4057 97.0561 15.1765 101.55 15.3916C104.91 15.5304 107.943 16.5883 110.153 19.326C111.876 21.4501 112.624 23.999 112.686 26.7076C112.767 30.6698 112.706 34.6348 112.706 38.5983H112.821ZM95.6734 38.5789C94.7557 38.5789 93.8381 38.5789 92.9191 38.5789C92.0001 38.5789 91.0728 38.5109 90.1675 38.6275C87.1821 39.0162 86.0443 40.41 86.3958 43.5879C86.4751 44.2987 86.7609 45.0081 87.0645 45.6634C87.2628 46.0712 87.5741 46.4114 87.9603 46.6421C89.4099 47.4681 91.0113 47.65 92.6333 47.4862C95.5052 47.196 98.3634 46.8378 101.228 46.5255C101.971 46.445 102.403 46.0424 102.418 45.3163C102.459 43.4541 102.466 41.592 102.437 39.7298C102.424 38.8871 101.959 38.5345 101.085 38.5608C99.2824 38.6178 97.4772 38.5803 95.6734 38.5789Z" fill="#2A2C31"/>
<path d="M142.274 36.0107C142.274 30.6824 142.274 25.3537 142.274 20.0245C142.274 19.6543 142.285 19.2882 142.308 18.9263C142.357 18.1183 142.718 17.7032 143.577 17.5908C147.477 17.0771 151.372 16.4802 155.267 15.9595C160.389 15.2751 165.539 15.0502 170.68 15.5514C173.98 15.8721 176.892 17.209 178.772 20.1786C180.038 22.1805 180.562 24.4545 180.645 26.8035C180.775 30.4279 180.85 34.055 180.872 37.6849C180.909 42.5134 180.886 47.3433 180.872 52.1731C180.872 53.8391 180.56 54.1168 178.885 54.1168C176.622 54.1084 174.357 54.1168 172.092 54.1168C170.346 54.1168 170.163 53.9391 170.163 52.1995C170.163 45.5033 170.163 38.8085 170.163 32.1151C170.163 30.8171 170.105 29.5176 170.026 28.2279C169.889 26.0594 169.045 25.2056 167.001 24.6891C164.177 23.9755 161.321 24.3171 158.478 24.2352C157.232 24.1991 155.984 24.2116 154.736 24.2352C153.328 24.2615 152.857 24.7599 152.857 26.1788C152.857 34.8056 152.857 43.432 152.857 52.0579C152.857 54.0015 152.762 54.1154 150.872 54.1223C148.574 54.1306 146.277 54.1306 143.98 54.1223C142.46 54.1223 142.274 53.9363 142.272 52.4078C142.27 46.9388 142.27 41.4731 142.274 36.0107Z" fill="#2A2C31"/>
<path d="M48.4195 17.8491C50.2329 17.5409 51.9013 17.1966 53.5876 16.9815C59.0496 16.2873 64.4885 15.3252 70.0217 15.3377C70.1516 15.3377 70.2829 15.3294 70.4142 15.3266C72.393 15.2947 72.5558 15.4529 72.5626 17.4299C72.5681 19.1606 72.5681 20.8918 72.5626 22.6235C72.5626 23.8729 72.2686 24.1895 70.9543 24.2006C67.6079 24.227 64.2532 24.2131 60.9136 24.2172C59.382 24.2172 58.9525 24.6532 58.9525 26.2483C58.9525 34.94 58.9557 43.6316 58.9621 52.3232C58.9621 53.8018 58.6654 54.1197 57.1692 54.128C54.7742 54.1345 52.3791 54.1345 49.984 54.128C48.5221 54.128 48.1638 53.7782 48.1624 52.3107C48.1542 41.421 48.1542 30.5317 48.1624 19.6428C48.1747 19.0903 48.321 18.535 48.4195 17.8491Z" fill="#2A2C31"/>
<path d="M132.978 35.2486C132.978 40.9073 132.978 46.566 132.978 52.2247C132.978 53.7449 132.651 54.0767 131.117 54.085C128.755 54.0989 126.393 54.0989 124.033 54.085C122.445 54.0739 122.152 53.7671 122.151 52.1414C122.146 40.8574 122.146 29.5728 122.151 18.2879C122.151 16.6594 122.431 16.4123 124.077 16.4151C126.405 16.4151 128.734 16.4151 131.062 16.4151C132.694 16.4151 132.977 16.6622 132.977 18.2851C132.983 23.9364 132.984 29.5909 132.978 35.2486Z" fill="#2A2C31"/>
<path d="M127.586 11.3157C126.24 11.3157 124.894 11.3476 123.55 11.306C122.359 11.2685 122.077 10.9964 122.062 9.81355C122.03 7.31463 122.03 4.8157 122.062 2.31677C122.078 1.11034 122.336 0.818802 123.52 0.797978C126.21 0.74985 128.9 0.746611 131.588 0.78826C132.776 0.806308 133.008 1.10063 133.018 2.31538C133.036 4.78007 133.036 7.24429 133.018 9.70804C133.009 10.9575 132.759 11.2352 131.513 11.2893C130.202 11.3379 128.889 11.3004 127.576 11.3004L127.586 11.3157Z" fill="#2A2C31"/>
</svg>
