<svg width="210" height="30" viewBox="0 0 210 30" fill="none" xmlns="http://www.w3.org/2000/svg">
<path d="M210 10.7049H203.971V29.2098H182.146V6.99739H200.278V0.764648H203.877V6.96987H210.001L210 10.7049ZM200.263 10.7867H185.783V25.451C186.93 25.6536 199.583 25.597 200.263 25.3884V10.7867Z" fill="#2A2C31"/>
<path d="M72.0532 29.7649C69.1744 29.6884 66.5257 28.9142 64.3381 26.9783C61.4323 24.408 60.1698 21.0834 60.5626 17.1954C61.3423 9.47618 68.0596 6.31128 73.6583 7.08779C76.4517 7.47528 78.9062 8.55292 80.7805 10.7273C83.6368 14.0367 84.3085 17.8841 82.9906 22.0166C81.6726 26.149 78.7533 28.5542 74.6195 29.4462C73.782 29.625 72.9109 29.6617 72.0532 29.7649ZM72.0247 12.4011C68.6046 12.4149 66.0729 15.0356 66.1104 18.523C66.1456 21.8446 68.7343 24.3568 72.1162 24.3476C75.4981 24.3385 78.0681 21.7261 78.0568 18.335C78.0433 14.9928 75.3976 12.3866 72.0247 12.4011Z" fill="#2A2C31"/>
<path d="M165.816 29.7309C161.998 29.6544 159.045 28.6647 156.714 26.1701C152.236 21.378 152.84 13.2988 158.001 9.35581C160.585 7.3832 163.549 6.70222 166.751 7.06755C168.815 7.30371 170.744 7.95488 172.397 9.24499C176.002 12.056 177.357 15.8675 176.618 20.3393C175.849 24.9915 173.076 27.9883 168.602 29.2555C167.542 29.5543 166.419 29.6292 165.816 29.7309ZM159.298 18.4638C159.298 21.7854 161.881 24.3396 165.248 24.3488C168.646 24.3587 171.221 21.7976 171.235 18.3935C171.25 15.0306 168.64 12.4076 165.27 12.403C161.829 12.3969 159.299 14.9649 159.298 18.4607V18.4638Z" fill="#2A2C31"/>
<path d="M38.8066 29.2664V7.40025C39.078 7.37732 39.3142 7.3414 39.5503 7.3414C41.7447 7.33681 43.9398 7.33299 46.1342 7.3414C47.7168 7.34828 49.2829 7.51413 50.7883 8.03384C54.4791 9.3079 56.6974 11.9218 57.4374 15.8035C57.8317 17.8671 57.8062 19.9528 57.2042 21.9782C56.1007 25.6911 53.485 27.8265 49.9471 28.8567C48.8638 29.1724 47.698 29.2802 46.5645 29.3153C44.1857 29.3849 41.8047 29.3421 39.4244 29.3398C39.2173 29.3268 39.0111 29.3023 38.8066 29.2664ZM44.3454 24.5156C45.245 24.5156 46.048 24.5829 46.8404 24.5034C49.5206 24.2351 51.3251 22.608 51.8274 19.9643C52.119 18.4304 52.0336 16.8896 51.4825 15.4076C51.0275 14.1848 50.262 13.2172 49.0722 12.6715C47.5661 11.9837 45.9775 12.0081 44.3492 12.1151L44.3454 24.5156Z" fill="#2A2C31"/>
<path d="M132.27 7.3167C133.655 7.3167 134.978 7.2953 136.3 7.32205C138.213 7.36179 140.138 7.30982 142.034 7.52229C146.819 8.05729 150.532 11.4805 151.006 16.8741C151.152 18.5249 151.112 20.1544 150.674 21.7418C149.61 25.5946 146.936 27.7735 143.299 28.8496C142.377 29.1108 141.426 29.2495 140.469 29.2624C137.907 29.3197 135.342 29.2868 132.778 29.2868C132.628 29.2868 132.478 29.2669 132.27 29.2524V7.3167ZM137.756 24.4848C139.04 24.5941 140.26 24.572 141.459 24.2097C143.399 23.6227 144.63 22.3265 145.129 20.3348C145.545 18.674 145.439 17.0285 144.857 15.4181C144.472 14.3481 143.839 13.4761 142.863 12.8998C141.262 11.9536 139.52 12.0201 137.756 12.1095V24.4848Z" fill="#2A2C31"/>
<path d="M87.0116 7.32609C87.2552 7.31157 87.4614 7.28711 87.6735 7.28711C90.6386 7.29246 93.6044 7.28711 96.5702 7.31692C97.249 7.3272 97.9259 7.39288 98.5944 7.51334C100.587 7.86185 102.06 8.97694 102.943 10.8235C104.061 13.1706 104.067 15.562 102.97 17.9237C102.696 18.4869 102.342 19.0065 101.921 19.466C101.512 19.9245 100.996 20.2845 100.458 20.7462L105.547 29.2725H99.656C98.389 27.0439 97.0942 24.766 95.7718 22.439H92.2482V29.2144H87.0078L87.0116 7.32609ZM92.2422 17.6439C93.7416 18.0314 95.1968 18.1277 96.6242 17.5576C98.2735 16.8972 98.9378 14.5623 97.8537 13.1331C97.5252 12.723 97.0799 12.4271 96.5792 12.2863C95.1683 11.921 93.7214 12.0685 92.243 12.0914L92.2422 17.6439Z" fill="#2A2C31"/>
<path d="M129.445 29.2868H123.583C123.08 27.9241 122.584 26.5774 122.046 25.1207C119.577 25.8219 116.967 25.8197 114.5 25.1146C113.949 26.4903 113.406 27.8545 112.838 29.2746H107.013C109.767 21.9428 112.495 14.6767 115.235 7.38623H121.362L129.445 29.2868ZM118.28 14.2029L118.118 14.2457C117.399 16.3979 116.682 18.5501 115.944 20.7696C117.518 21.1846 118.984 21.1823 120.511 20.7222L118.28 14.2029Z" fill="#2A2C31"/>
<path d="M14.7053 29.2382H0V7.40186H14.7271V12.0395H5.4563V15.8709H14.344V20.6308H5.47279V24.5379H14.7091L14.7053 29.2382Z" fill="#2A2C31"/>
<path d="M34.8106 29.2418H20.0415V7.3833H25.5143V24.5575H34.8106V29.2418Z" fill="#2A2C31"/>
<path d="M190.704 19.2603V15.3066H192.237C192.216 16.7114 192.429 18.1154 192.081 19.4903C191.81 20.5664 190.901 21.1496 189.766 21.1366C188.653 21.1244 187.805 20.4938 187.517 19.4063C187.421 19.0107 187.373 18.6047 187.373 18.1972C187.356 17.3182 187.373 16.4393 187.385 15.5589C187.385 15.5023 187.427 15.4465 187.472 15.3296H188.827C188.827 16.0281 188.827 16.7374 188.827 17.4459C188.827 17.854 188.808 18.2659 188.854 18.6687C188.984 19.7953 189.661 20.059 190.704 19.2603Z" fill="#2A2C31"/>
<path d="M197.064 20.9419C196.928 20.6002 196.814 20.3151 196.693 20.011H194.701L194.246 20.9594H192.77C193.492 19.0174 194.182 17.1632 194.879 15.2915H196.523C197.208 17.1502 197.885 18.9922 198.601 20.9388L197.064 20.9419ZM195.115 18.8538L196.314 18.8003L195.801 17.2664L195.63 17.2786C195.477 17.7403 195.327 18.205 195.117 18.8508L195.115 18.8538Z" fill="#2A2C31"/>
</svg>
