<svg width="203" height="75" viewBox="0 0 203 75" fill="none" xmlns="http://www.w3.org/2000/svg">
<path d="M149.799 28.5511H150.674C158.612 28.5511 166.55 28.574 174.487 28.5296C175.837 28.5205 177.172 28.8087 178.4 29.3743C183.468 31.6649 187.147 35.3872 189.091 40.6198C191.84 48.0242 191.832 55.5189 188.798 62.8403C186.534 68.3091 182.446 71.9856 176.897 73.9526C176.52 74.0902 176.123 74.1637 175.723 74.1702C159.892 74.1817 144.064 74.1846 128.236 74.1788H127.583V73.3743C127.591 55.1858 127.604 36.9968 127.622 18.8074C127.629 18.4415 127.765 18.0901 128.006 17.8167C133.678 12.0987 139.367 6.39791 145.074 0.714307C145.358 0.451924 145.724 0.299757 146.108 0.284816C164.519 0.263818 182.93 0.257138 201.342 0.264773H201.947L202.106 0.503857C201.94 0.59405 201.741 0.64702 201.613 0.778731C195.927 6.51674 190.246 12.2629 184.572 18.0171C184.421 18.1793 184.236 18.3062 184.031 18.389C183.827 18.4718 183.606 18.5086 183.386 18.4967C171.206 18.4852 159.027 18.4819 146.847 18.4867H145.878V56.206C146.097 56.2189 146.325 56.2476 146.553 56.2476C153.803 56.2476 161.053 56.2175 168.304 56.2604C172.54 56.2862 174.088 51.9655 172.493 48.8789C171.655 47.2554 170.21 46.5296 168.389 46.5339C162.488 46.5453 156.588 46.5453 150.689 46.5339H149.805L149.799 28.5511Z" fill="#2A2C31"/>
<path d="M0.105957 74.2646V73.5989C0.105957 65.7383 0.112562 57.8781 0.125771 50.0184C0.141635 49.6295 0.298288 49.2601 0.565916 48.9805C17.3981 32.8764 34.243 16.7853 51.1006 0.707025C51.3444 0.463159 51.6637 0.311517 52.0049 0.277533C57.7155 0.264648 63.4261 0.264648 69.1367 0.264648C69.2513 0.264648 69.3673 0.278965 69.5259 0.288986V74.1372H50.5713V63.5975H18.3911C18.6034 63.3584 18.7095 63.2181 18.8355 63.0979C24.7268 57.4667 30.6237 51.8471 36.5262 46.2389C36.8532 45.9526 37.2673 45.7884 37.6995 45.7736C41.7754 45.7392 45.85 45.7521 49.9259 45.7536H50.8076V26.75L0.105957 74.2646Z" fill="#2A2C31"/>
<path d="M108.74 18.4822V74.1372H89.4512V18.4879H73.7998V0.304688H139.696C138.122 1.89667 136.623 3.41421 135.122 4.93031C130.828 9.26436 126.535 13.5998 122.243 17.9368C122.08 18.1201 121.879 18.2651 121.655 18.3613C121.431 18.4576 121.188 18.5028 120.945 18.4937C117.153 18.4708 113.362 18.4822 109.57 18.4822H108.74Z" fill="#2A2C31"/>
</svg>
