<svg width="216" height="37" viewBox="0 0 216 37" fill="none" xmlns="http://www.w3.org/2000/svg">
<path d="M210.553 21.0282C212.266 23.454 213.927 25.8115 215.668 28.2741C215.228 28.4654 215.008 28.6491 214.775 28.6491C213.083 28.6709 211.387 28.7242 209.701 28.6109C209.212 28.5779 208.634 28.1241 208.307 27.695C207.101 26.1033 205.993 24.4336 204.821 22.8142C204.737 22.711 204.634 22.6259 204.518 22.5637C204.402 22.5015 204.275 22.4635 204.145 22.4519C202.654 22.4196 201.163 22.4354 199.424 22.4354V28.5486H193.899C193.83 28.0611 193.697 27.5533 193.696 27.0447C193.68 18.8132 193.675 10.5811 193.682 2.34862C193.682 0.932445 193.93 0.673663 195.344 0.709667C199.137 0.807179 202.932 0.872437 206.72 1.08471C209.078 1.21523 211.025 2.39363 212.705 4.07084C215.73 7.08996 216.289 10.8142 215.194 14.7154C214.629 16.7264 213.621 18.7659 211.539 19.8513C211.156 20.0531 210.927 20.5691 210.553 21.0282ZM199.499 5.99858V16.6964C199.99 16.7632 200.388 16.8809 200.78 16.8607C202.278 16.7812 203.774 16.5809 205.272 16.5696C207.537 16.5516 210.162 14.2624 209.792 11.6453C209.728 11.1952 209.768 10.7249 209.748 10.2644C209.699 9.16022 209.198 8.35837 208.341 7.66078C205.701 5.51026 202.653 5.95882 199.499 5.99858Z" fill="#2A2C31"/>
<path d="M73.1124 28.4381C72.409 28.5619 72.0613 28.6534 71.7092 28.6782C71.2603 28.7097 70.807 28.6894 70.3558 28.6894C65.5512 28.6857 67.0359 28.9557 64.3145 25.422C63.6734 24.5902 63.1181 23.6871 62.4433 22.8867C62.2071 22.6077 61.7376 22.4224 61.3613 22.3984C60.1628 22.3234 58.9532 22.2746 57.759 22.3669C57.4605 22.3901 56.9954 22.9617 56.9668 23.3113C56.8692 24.5332 56.9419 25.7686 56.922 26.9987C56.914 27.4833 56.834 27.9671 56.7753 28.5642H51.3517C51.2878 28.0016 51.1859 27.5223 51.1851 27.0437C51.1754 18.8167 51.1741 10.5907 51.1815 2.36563C51.1815 0.982461 51.4565 0.668172 52.7277 0.700426C56.4812 0.796438 60.2449 0.787437 63.9844 1.07922C67.2853 1.33651 69.8636 3.07222 71.6476 5.97734C73.1667 8.45265 73.4814 11.1935 72.9019 13.9231C72.5953 15.358 71.6395 16.7194 70.7358 17.9263C70.0874 18.7942 69.0487 19.3658 68.1685 20.0408C67.4995 20.5524 67.542 21.0992 68.1531 21.8823C69.7632 23.9458 71.3175 26.0581 73.1124 28.4381ZM57.415 17.0982C58.3378 17.0982 59.3155 17.1732 60.2757 17.0787C61.2777 16.9842 62.2606 16.6197 63.2604 16.5747C64.9336 16.4997 65.9987 15.4158 66.7682 14.2059C68.5037 11.477 66.6948 7.11973 63.5891 6.5129C61.6599 6.13786 59.6654 6.10185 57.6981 5.94208C57.4678 5.92333 57.2235 6.0846 57.0196 6.15136C56.6345 9.44352 56.8575 16.2416 57.415 17.0982Z" fill="#2A2C31"/>
<path d="M105.153 8.74071C105.931 11.09 107.048 14.2396 106.067 17.8063C105.024 21.5951 103.101 24.7522 99.847 26.6619C91.6059 31.4955 84.3352 28.0931 80.6859 23.174C76.9669 18.1634 77.4496 9.42854 80.8553 5.80259C84.3704 2.05963 88.4385 -0.141148 93.4456 0.352414C98.3638 0.836974 102.27 3.43155 105.153 8.74071ZM92.134 5.8761C87.4629 5.33753 83.5569 10.2409 83.5642 14.5914C83.5723 19.323 87.4967 23.6353 92.1978 23.5836C96.7743 23.5333 100.7 19.4033 100.756 14.6469C100.808 10.1659 96.7369 5.32778 92.134 5.8761Z" fill="#2A2C31"/>
<path d="M159.603 14.6666C159.367 6.60531 166.352 0.189761 173.715 0.272271C181.066 0.354782 187.793 6.4793 187.826 14.7101C187.856 22.2815 181.282 28.8268 173.732 28.9499C166.261 29.0684 159.222 22.1855 159.603 14.6666ZM173.693 5.87922C168.97 5.21314 165.217 10.2733 165.226 14.6051C165.237 19.5167 169.015 23.6639 173.702 23.5867C177.997 23.5154 182.07 19.6554 182.137 14.7258C182.205 10.1608 178.067 5.37966 173.693 5.87922Z" fill="#2A2C31"/>
<path d="M29.5998 22.6175C29.5998 24.2452 29.6101 25.6989 29.5998 27.1533C29.5873 28.4848 29.3988 28.6715 28.0748 28.6835C26.7801 28.6955 25.4847 28.6835 24.1292 28.6835C24.0771 27.9454 24.0177 27.4931 24.017 27.0408C24.0111 18.8508 24.0094 10.6603 24.0118 2.46927C24.0118 0.871566 24.1857 0.664541 25.7723 0.705796C29.5639 0.804058 33.3577 0.882818 37.1419 1.09584C39.9653 1.25486 42.025 2.92982 43.8544 4.99633C45.1821 6.49652 45.5048 8.42576 45.9875 10.2305C46.2684 11.2806 45.9442 12.5678 45.6699 13.6914C45.2723 15.3161 44.8124 16.9168 43.6424 18.2467C42.3221 19.7529 40.7237 20.6778 38.9303 21.4279C36.4869 22.451 33.9511 22.3355 31.4087 22.3602C30.8387 22.3662 30.2695 22.5185 29.5998 22.6175ZM29.7076 16.523C30.1324 16.6258 30.6224 16.8538 31.1072 16.8426C32.4547 16.8096 33.7992 16.6055 35.1416 16.6003C37.3422 16.5913 38.7916 15.4526 39.8699 13.6224C40.4222 12.6848 40.3834 9.85694 39.7966 9.05659C38.741 7.63141 37.4874 6.53477 35.6961 6.20023C33.7303 5.83268 31.7784 5.85444 29.7069 6.12522L29.7076 16.523Z" fill="#2A2C31"/>
<path d="M110.023 24.7927C110.479 24.1431 110.79 23.6676 111.131 23.2175C111.7 22.4674 112.253 21.7038 112.878 21.0055C113.414 20.4054 113.927 20.5727 114.529 21.0858C117.376 23.5078 120.654 24.3989 124.238 23.3953C125.067 23.1635 126.072 22.4667 126.136 21.2043C126.201 19.9419 125.706 18.9367 124.386 18.4087C122.859 17.7958 121.292 17.2896 119.698 16.8935C117.527 16.3557 115.493 15.6101 113.705 14.1789C111.617 12.5077 111.043 10.2867 111.262 7.74533C111.443 5.63832 112.289 3.91985 114.018 2.62594C117.276 0.182884 120.729 -0.272423 124.612 0.836966C126.592 1.40329 128.437 2.10688 130.156 3.21626C130.34 3.33553 130.501 3.49155 130.856 3.77883C130.11 5.04274 129.372 6.29465 128.599 7.60431C127.712 8.2794 126.826 7.69282 126.165 7.19401C124.404 5.86635 122.419 5.79884 120.398 5.75458C119.95 5.74483 119.498 5.82284 119.049 5.86935C117.672 6.01336 117.048 6.64944 116.886 8.06637C116.765 9.1255 117.499 10.2506 118.54 10.6084C121.401 11.5903 124.308 12.4409 127.091 13.6088C128.73 14.2788 130.093 15.5044 130.953 17.0803C131.76 18.5294 132.021 19.9464 131.792 21.4533C131.411 23.9504 130.261 25.9824 128.028 27.328C124.126 29.6811 120.022 29.1148 116.026 28.0106C114.007 27.4541 112.223 26.0064 110.023 24.7927Z" fill="#2A2C31"/>
<path d="M149.399 28.5753H143.871C143.794 28.0375 143.638 27.4592 143.636 26.8809C143.617 20.4608 143.623 14.0408 143.616 7.6207C143.616 7.13239 143.576 6.64558 143.548 5.9705H135.169C134.829 4.12076 134.721 2.46831 135.289 0.700337H137.399C143.754 0.700337 150.108 0.698336 156.463 0.694336C157.85 0.694336 158.053 0.88786 158.072 2.26953C158.087 3.41118 158.072 4.55282 158.072 5.90524H149.399V28.5753Z" fill="#2A2C31"/>
<path d="M8.41984 20.9177C12.2701 20.7534 16.0954 24.5931 15.9568 28.6602C15.8101 32.9574 12.5195 36.2556 8.27387 36.2646C4.29962 36.2736 0.76403 32.7684 0.713417 28.6842C0.662804 24.5204 4.26955 20.8059 8.41984 20.9177Z" fill="#2A2C31"/>
</svg>
