<svg width="231" height="21" viewBox="0 0 231 21" fill="none" xmlns="http://www.w3.org/2000/svg">
<path d="M33.3948 12.2364H31.101V19.937H24.9659C24.7132 19.2501 24.6139 2.50313 24.8604 0.69482H31.0324V7.63769H33.7877C33.9001 7.02076 34.0234 6.38808 34.1304 5.74912C34.6003 2.94852 36.385 1.44632 38.9507 0.85771C41.262 0.322805 43.6401 0.153748 46.0016 0.356451C47.6192 0.49652 49.2105 0.636589 50.7395 1.24015C52.8023 2.05381 54.228 3.47024 54.6339 5.73102C55.1873 8.75847 55.1828 11.8648 54.6208 14.8906C54.191 17.1962 52.7145 18.6072 50.6016 19.3878C49.2413 19.9043 47.8054 20.1823 46.3544 20.2101C44.8909 20.229 43.4274 20.2754 41.9709 20.1991C40.009 20.0968 38.1034 19.6954 36.3965 18.6182C35.0463 17.766 34.4216 16.392 33.9671 14.9355C33.7052 14.0919 33.5928 13.1995 33.3948 12.2364ZM48.5766 10.2235C48.4033 9.23117 48.2947 8.17121 48.0205 7.15925C47.7263 6.07411 46.8459 5.45245 45.7814 5.42255C44.8986 5.39816 44.0152 5.40681 43.1324 5.42255C41.4818 5.44694 40.5837 6.22598 40.2648 7.87534C39.9389 9.5601 39.9682 11.2472 40.2763 12.9257C40.4635 13.9447 41.0219 14.8064 42.0433 14.9622C43.3765 15.174 44.7288 15.2326 46.0748 15.1369C46.5554 15.1078 47.013 14.917 47.3762 14.5943C47.7395 14.2716 47.988 13.8351 48.0829 13.353C48.3001 12.3576 48.4064 11.333 48.5766 10.2235Z" fill="#2A2C31"/>
<path d="M176.561 7.84423C176.381 7.99453 176.147 8.10941 176.029 8.29906C175.181 9.66277 174.343 11.0312 173.533 12.4185C172.378 14.3913 171.26 16.3829 170.121 18.3644C169.594 19.2803 168.773 19.7997 167.788 20.0389C166.556 20.3371 165.314 20.3537 164.087 20.0035C162.7 19.6053 161.699 18.2038 161.68 16.6458C161.634 11.4396 161.654 6.23264 161.652 1.02647C161.666 0.909302 161.692 0.793868 161.729 0.681809H168.164C168.06 4.67772 167.959 8.63507 167.856 12.5924L168.096 12.6609C168.261 12.4791 168.466 12.3201 168.588 12.11C170.298 9.19849 171.992 6.26805 173.701 3.35178C174.24 2.4374 174.783 1.5419 175.717 0.94857C177.388 -0.120048 180.612 0.156156 181.802 1.68275C182.302 2.32566 182.671 3.02522 182.675 3.83809C182.7 9.14656 182.696 14.4558 182.7 19.7643C182.7 19.7958 182.674 19.8264 182.63 19.9311H176.545C176.635 15.953 176.725 11.966 176.816 7.97013L176.561 7.84423Z" fill="#2A2C31"/>
<path d="M106.903 20.2149C105.112 20.3046 103.139 20.1472 101.203 19.5783C98.3615 18.7442 96.9404 16.677 96.6092 13.8276C96.3995 11.9063 96.3341 9.9714 96.4135 8.0399C96.4512 6.93823 96.7855 5.8161 97.1299 4.75221C98.0203 1.99331 100.277 1.08759 102.789 0.63118C105.235 0.187366 107.706 0.17871 110.168 0.431306C111.709 0.588688 113.198 0.98214 114.583 1.74623C116.44 2.77471 117.356 4.44767 117.567 6.48733C117.763 8.41145 117.831 10.347 117.768 12.2805C117.71 14.0172 117.48 15.7476 116.406 17.2514C115.856 18.0155 115.163 18.5207 114.393 18.9338C112.826 19.779 111.112 20.1236 109.351 20.2086C108.608 20.2448 107.86 20.2149 106.903 20.2149ZM107.089 5.42108C106.715 5.42108 106.341 5.41478 105.968 5.42108C104.306 5.45334 103.397 6.06162 103.142 7.74245C102.913 9.31312 102.858 10.9049 102.975 12.4883C103.069 13.8465 103.834 14.9442 105.28 15.111C106.493 15.2491 107.716 15.2562 108.93 15.1323C109.783 15.0457 110.534 14.5216 110.81 13.6025C111.45 11.474 111.504 9.31941 110.855 7.18611C110.504 6.02778 109.681 5.46278 108.516 5.42344C108.041 5.40376 107.565 5.41793 107.089 5.41714V5.42108Z" fill="#2A2C31"/>
<path d="M138.41 19.9819H132.248C132.231 19.6365 132.201 19.306 132.2 18.9747C132.197 15.2967 132.197 11.6184 132.2 7.93992C132.2 7.5929 132.21 7.24587 132.2 6.89884C132.15 5.63193 131.933 5.41867 130.707 5.41789C129.383 5.41789 128.058 5.41238 126.733 5.41789C125.654 5.4234 125.363 5.70983 125.362 6.83432C125.354 10.7909 125.354 14.7469 125.362 18.7024V19.9206H119.191C119.157 19.7175 119.088 19.4917 119.087 19.2659C119.082 14.1998 119.082 9.1334 119.087 4.06677C119.088 3.61579 119.142 3.16654 119.249 2.72903C119.573 1.41411 120.549 0.633499 122.009 0.624843C126.63 0.599662 131.252 0.599662 135.874 0.624843C137.368 0.634286 138.415 1.81386 138.415 3.34439C138.415 8.55004 138.415 13.7554 138.415 18.9605L138.41 19.9819Z" fill="#2A2C31"/>
<path d="M230.316 20.0033H223.866C223.429 20.0033 223.359 19.7058 223.255 19.3368C222.93 18.1926 222.54 17.0681 222.158 15.8831C219.92 15.8831 217.752 15.887 215.583 15.8831C215.173 15.8831 215.022 16.0814 214.89 16.4709C214.548 17.4726 214.102 18.4381 213.751 19.4351C213.597 19.8727 213.366 20.019 212.935 20.0159C211 20.0009 209.065 20.0096 206.992 20.0096C207.285 19.2392 207.523 18.5499 207.805 17.8786C209.948 12.7805 212.095 7.68376 214.246 2.58828C214.823 1.21434 215.816 0.463636 217.281 0.419569C218.254 0.39124 219.237 0.334583 220.199 0.440815C221.663 0.602131 222.645 1.53619 223.221 2.87314C224.179 5.0993 225.08 7.34985 226.009 9.58938C227.293 12.6814 228.577 15.7729 229.86 18.8639C230 19.1991 230.133 19.5437 230.316 20.0033ZM218.656 6.19703C217.963 8.05413 217.351 9.69876 216.711 11.4166H220.59C219.962 9.72158 219.35 8.06908 218.656 6.19703Z" fill="#2A2C31"/>
<path d="M17.0859 19.927C15.4725 15.5234 13.8513 11.1 12.2225 6.65659L12.0346 6.692L7.18193 19.9577H0.317383C1.00599 18.3115 1.65609 16.7313 2.32545 15.1654C4.02849 11.1734 5.76465 7.19562 7.43765 3.19027C8.16247 1.45908 9.3633 0.573809 11.2004 0.377083C12.2014 0.25901 13.2153 0.339163 14.1867 0.613154C15.1295 0.881489 15.7857 1.50236 16.1678 2.39235C18.4272 7.66777 20.6784 12.9476 22.9214 18.232C23.1448 18.7576 23.3635 19.2856 23.6308 19.9246L17.0859 19.927Z" fill="#2A2C31"/>
<path d="M95.1232 15.2156V19.9276C94.868 19.9671 94.6109 19.9934 94.353 20.0062C91.3636 20.0118 88.3727 20.0472 85.3841 19.9929C84.0046 19.9677 82.6066 19.7812 81.4188 18.9699C79.7913 17.8604 78.6158 16.3456 78.2846 14.3523C77.8117 11.5092 77.6884 8.61342 78.4587 5.82069C79.229 3.02797 81.0067 1.14333 83.9838 0.842728C85.5951 0.680625 87.2189 0.660953 88.8441 0.632624C90.7698 0.598787 92.7031 0.624755 94.6927 0.624755V5.30763C94.4292 5.33281 94.1704 5.37609 93.9116 5.37845C91.9413 5.39655 89.9702 5.44141 88.0007 5.40757C86.1089 5.37452 84.9443 6.71698 84.697 8.21604C84.4097 9.96454 84.5345 11.6737 84.8234 13.3679C84.9096 13.8747 85.4881 14.4412 85.9787 14.6923C86.615 15.0165 87.3891 15.1644 88.11 15.1896C90.0788 15.2533 92.0507 15.2116 94.021 15.2116L95.1232 15.2156Z" fill="#2A2C31"/>
<path d="M152.969 19.9529H146.79V5.41398H139.91V0.683105H159.992V5.37306H152.966L152.969 19.9529Z" fill="#2A2C31"/>
<path d="M76.8811 0.624355C75.5609 2.2021 74.3994 3.59178 73.2347 4.97988C72.0023 6.45061 70.7768 7.92999 69.5236 9.38655C69.1223 9.85161 69.073 10.275 69.4389 10.7605C69.6037 10.9793 69.7385 11.2256 69.9241 11.4231C71.6126 13.2329 73.3179 15.0224 74.9994 16.837C75.9045 17.8151 76.771 18.8294 77.7554 19.939C77.4388 19.9689 77.2278 20.0058 77.0167 20.0066C75.014 20.0066 73.0044 19.9964 70.9987 20.0184C70.5142 20.0232 70.2091 19.8705 69.8972 19.4676C67.9839 17.0117 66.0105 14.6037 64.1033 12.1423C63.179 10.9454 62.7438 10.042 63.6958 8.60122C64.4661 7.43345 65.262 6.28195 66.0836 5.1467C67.0803 3.76175 68.1264 2.41457 69.1015 1.01781C69.3126 0.71721 69.502 0.618847 69.8302 0.619634C72.1055 0.627503 74.3832 0.624355 76.8811 0.624355Z" fill="#2A2C31"/>
<path d="M204.572 0.623497C203.157 2.38144 201.876 3.97886 200.588 5.5692C199.554 6.84792 198.499 8.10933 197.474 9.39592C197.037 9.94676 197.06 10.2954 197.516 10.8737C197.855 11.3057 198.209 11.7299 198.582 12.1328C200.336 14.0214 202.108 15.891 203.859 17.782C204.482 18.4548 205.066 19.1646 205.796 20.0066H204.761C203.061 20.0066 201.353 19.909 199.663 20.0428C198.623 20.1215 198.026 19.654 197.463 18.9458C195.715 16.7496 193.977 14.5454 192.229 12.3492C190.939 10.7282 190.884 9.22831 192.195 7.61988C193.828 5.61642 195.276 3.45636 196.799 1.35847C197.161 0.858781 197.56 0.583364 198.238 0.603037C200.276 0.65812 202.316 0.623497 204.572 0.623497Z" fill="#2A2C31"/>
<path d="M184.384 0.665039H190.58V19.9442H184.384V0.665039Z" fill="#2A2C31"/>
<path d="M56.4448 0.623535H62.4775V19.9374H56.4448V0.623535Z" fill="#2A2C31"/>
</svg>
