<svg width="189" height="153" viewBox="0 0 189 153" fill="none" xmlns="http://www.w3.org/2000/svg">
<path d="M95.6503 57.7993C103.802 57.8072 111.127 60.3003 117.479 65.3031C123.978 70.4151 128.296 77.0489 129.958 85.2359C130.456 87.6702 130.766 90.1391 130.887 92.6208C131.017 95.4717 128.398 97.2049 125.746 96.1677C124.53 95.6919 123.795 94.7541 123.651 93.424C123.481 91.8432 123.431 90.2418 123.148 88.6816C122.82 86.8728 122.432 85.0511 121.826 83.3199C120.48 79.4715 118.245 75.9948 115.302 73.1726C111.204 69.2148 106.401 66.4877 100.69 65.6619C98.4232 65.3336 96.0908 65.0308 93.8253 65.2019C88.7663 65.5823 84.0691 67.2299 79.9393 70.2401C74.2362 74.3956 70.3827 79.8359 68.9117 86.7961C68.481 88.8301 68.3217 90.9329 68.1841 93.013C68.0513 94.9861 66.6108 96.442 64.5459 96.4538C62.481 96.4656 60.9136 95.0293 60.9077 93.0366C60.8999 85.3608 63.071 78.3888 67.6285 72.1699C70.9845 67.5937 75.1792 64.0163 80.2471 61.5104C83.9167 59.6976 87.783 58.4363 91.905 58.1139C93.1538 58.0185 94.4016 57.9055 95.6503 57.7993Z" fill="#2A2C31"/>
<path d="M138.429 69.9648C131.781 69.9235 125.913 67.8256 120.779 63.5994C115.757 59.4646 112.578 54.2061 111.248 47.883C109.954 41.729 110.679 35.7243 113.51 30.111C117.387 22.4165 123.517 17.3625 131.982 15.4032C134.1 14.9117 136.318 14.7839 138.5 14.664C140.565 14.5509 141.989 16.1179 142.001 18.2708C142.012 20.4503 140.643 21.9082 138.552 21.9613C132.58 22.1058 127.462 24.2676 123.41 28.6659C120.816 31.4531 119.096 34.9393 118.464 38.6932C117.734 42.9126 118.195 46.9923 120.05 50.845C122.213 55.3288 125.569 58.6585 130.122 60.7337C133.071 62.0876 136.307 62.6981 139.546 62.5116C142.786 62.3251 145.93 61.3474 148.704 59.6641C150.702 58.4599 152.868 59.1913 153.925 60.894C155.042 62.695 154.484 64.8115 152.509 66.0295C149.399 67.9485 146.038 69.2127 142.381 69.6079C141.064 69.7505 139.746 69.8458 138.429 69.9648Z" fill="#2A2C31"/>
<path d="M94.2196 120.559C94.6228 119.34 95.0427 118.127 95.4252 116.902C96.3062 114.083 97.1767 111.261 98.0368 108.435C98.5845 106.628 99.5294 105.834 101.407 105.806C103.553 105.773 105.7 105.789 107.846 105.817C111.553 105.865 111.56 107.587 111.415 110.201C111.354 111.304 111.059 112.391 110.951 113.494C110.692 116.149 110.503 118.817 110.242 121.474C109.94 124.567 109.599 127.656 109.248 130.744C109.205 131.129 109.002 131.496 108.876 131.869H102.037C101.959 131.597 101.793 131.315 101.819 131.05C101.996 129.195 102.222 127.345 102.414 125.491C102.607 123.637 102.764 121.793 102.966 119.947C103.173 118.041 103.438 116.141 103.628 114.234C103.702 113.492 103.64 112.737 103.64 111.988L103.199 111.906C102.887 112.756 102.549 113.598 102.268 114.462C100.539 119.751 98.8362 125.048 97.0938 130.333C96.6739 131.611 96.2088 131.889 94.8401 131.899C93.4094 131.911 91.9777 131.899 90.5471 131.899C89.5893 131.899 88.8912 131.605 88.7919 130.513C88.7516 130.075 88.6444 129.641 88.6228 129.203C88.4585 125.777 88.3278 122.349 88.1449 118.924C88.0347 116.859 87.8646 114.795 87.6975 112.73C87.6768 112.474 87.5116 112.229 87.2176 111.981C85.6345 118.583 84.8174 125.302 83.4379 131.863H76.3926C76.4909 130.831 76.5617 129.845 76.6876 128.869C77.0445 126.206 77.4093 123.546 77.8056 120.891C78.1674 118.468 78.5784 116.051 78.96 113.631C79.2166 112.005 79.5499 110.387 79.6846 108.748C79.8469 106.713 81.0829 105.987 82.7328 105.95C85.3533 105.891 87.9757 105.886 90.5992 105.905C92.0977 105.916 93.0141 107.001 93.1026 108.543C93.2806 111.656 93.5471 114.763 93.7477 117.876C93.8037 118.744 93.7565 119.619 93.7565 120.49L94.2196 120.559Z" fill="#2A2C31"/>
<path d="M95.8834 46.666C99.7733 46.7742 103.605 47.1084 107.323 48.2655C109.191 48.8475 110.283 50.9198 109.736 52.7345C109.197 54.5178 107.147 55.8401 105.188 55.3407C100.882 54.2416 96.4773 53.9644 92.0712 54.4028C84.9708 55.1205 78.4851 57.5909 72.7859 61.9037C65.4948 67.4089 60.6669 74.6345 58.3768 83.4959C57.6134 86.4116 57.245 89.4165 57.2814 92.4301C57.3089 94.3156 56.1388 96.0989 54.1742 96.5059C52.1791 96.9188 49.9117 95.3371 49.8566 93.2913C49.6865 86.9917 50.8959 80.9616 53.3247 75.1408C54.9962 71.121 57.1359 67.3745 59.8753 64.0202C64.1408 58.7932 69.2608 54.568 75.3503 51.5637C79.4356 49.5332 83.7999 48.1205 88.3003 47.3719C90.8008 46.9609 93.3553 46.8921 95.8834 46.666Z" fill="#2A2C31"/>
<path d="M3.32666 131.673C3.39844 130.887 3.42499 130.062 3.55577 129.249C4.15262 125.426 4.79766 121.61 5.38075 117.785C5.82225 114.888 6.18705 111.984 6.60495 109.08C6.70729 108.316 6.85804 107.558 7.05628 106.812C7.16247 106.429 7.44959 106.096 7.61773 105.799C12.6246 105.799 17.4624 105.72 22.2963 105.834C24.5529 105.887 26.61 107.06 26.844 109.939C27.0239 112.158 26.8705 114.286 25.6827 116.263C24.9236 117.526 23.6748 117.868 22.4153 118.247C22.1871 118.314 21.96 118.382 21.7555 118.634C22.4005 118.776 23.0652 118.858 23.6857 119.07C25.2157 119.592 26.0711 120.813 26.2874 122.301C26.5962 124.423 26.4418 126.548 25.5411 128.569C24.6699 130.522 22.9954 131.535 21.0731 131.604C15.2667 131.816 9.45058 131.778 3.63836 131.836C3.60591 131.838 3.57642 131.807 3.32666 131.673ZM12.8537 121.045C12.6128 122.885 12.3926 124.563 12.1517 126.401C13.7436 126.401 15.0917 126.486 16.4172 126.352C16.8449 126.31 17.4437 125.762 17.5676 125.326C17.9059 124.146 18.0337 122.901 18.2559 121.619C16.4516 120.568 14.7348 120.898 12.8537 121.045ZM13.8026 115.912C15.1714 115.912 16.3228 115.983 17.4575 115.872C17.8508 115.834 18.3975 115.411 18.5254 115.045C18.818 114.189 18.9837 113.294 19.017 112.39C19.0308 112.044 18.5765 111.398 18.2913 111.372C17.0337 111.259 15.7604 111.323 14.3847 111.323C14.19 112.876 14.0032 114.32 13.8026 115.912Z" fill="#2A2C31"/>
<path d="M188.322 11.7128C188.381 19.5577 186.267 26.0785 182.127 31.8963C179.349 35.7942 175.834 38.9587 171.689 41.4105C168.018 43.5811 164.055 44.9427 159.875 45.6062C157.948 45.912 155.952 45.9012 153.992 45.8491C152.714 45.8156 151.841 44.8955 151.301 43.7846C150.694 42.541 150.82 41.2699 151.637 40.16C152.368 39.1671 153.336 38.6313 154.666 38.5871C161.964 38.3629 168.284 35.8728 173.457 30.5632C177.167 26.7558 179.473 22.2553 180.505 17.1138C181.301 13.152 181.088 9.17842 179.967 5.27365C179.511 3.68991 180.007 1.87417 181.088 1.11426C182.623 0.0328759 184.226 -0.0654316 185.682 1.04741C186.306 1.5242 186.869 2.31066 187.074 3.06173C187.899 6.10631 188.482 9.19611 188.322 11.7128Z" fill="#2A2C31"/>
<path d="M138.665 58.6595C133.755 58.6595 129.676 56.7543 126.429 53.2103C124.238 50.8185 122.906 47.941 122.467 44.6379C121.718 39.0009 123.386 34.2173 127.424 30.3214C129.735 28.0643 132.706 26.6037 135.905 26.1521C139.136 25.6714 142.237 25.9211 145.193 27.3112C147.061 28.1891 147.726 30.3174 146.849 32.2266C146.086 33.882 143.98 34.6892 142.172 33.9636C139.072 32.7181 136.128 32.9943 133.432 34.9467C128.596 38.4563 128.238 44.9741 132.619 48.9683C134.672 50.8411 137.105 51.5853 139.784 51.2854C141.718 51.0746 143.517 50.194 144.869 48.7963C147.043 46.5893 150.309 47.3344 151.26 50.2483C151.622 51.3542 151.41 52.4366 150.663 53.2958C148.227 56.0877 145.187 57.8337 141.484 58.341C140.543 58.4629 139.604 58.5533 138.665 58.6595Z" fill="#2A2C31"/>
<path d="M76.8618 106.169L73.2551 131.828H65.0859C66.0269 125.095 66.9542 118.458 67.8765 111.864C66.8932 110.685 65.0918 111.116 64.5933 112.674C64.0604 114.339 63.7083 116.058 63.2334 117.743C62.1665 121.554 61.5618 125.534 59.3209 128.929C58.0426 130.875 56.1429 131.833 53.8342 131.878C52.6208 131.901 51.4025 131.77 50.1901 131.659C49.3159 131.578 48.8066 131.085 48.9167 130.161C49.079 128.804 49.2864 127.451 49.4772 126.08C51.3032 125.87 52.9305 125.475 53.8509 123.964C54.5317 122.854 55.0609 121.657 55.4241 120.406C56.3091 117.28 57.08 114.115 57.8519 110.96C58.6385 107.735 61.0426 105.801 64.3652 105.798C68.0112 105.798 71.6582 105.781 75.3033 105.813C75.8313 105.82 76.3593 106.05 76.8618 106.169Z" fill="#2A2C31"/>
<path d="M137.162 131.834H129.364C129.16 130.15 128.955 128.463 128.729 126.604C128.326 126.543 127.878 126.423 127.427 126.414C125.795 126.382 124.157 126.308 122.534 126.425C122.057 126.459 121.433 126.981 121.205 127.441C120.654 128.55 120.346 129.775 119.838 130.909C119.661 131.302 119.198 131.839 118.855 131.85C116.343 131.931 113.827 131.894 111.135 131.894C111.744 130.431 112.298 129.11 112.844 127.784C115.138 122.22 117.514 116.687 119.69 111.072C121.041 107.591 123.244 105.665 127.102 105.96C128.479 106.067 129.884 106.036 131.232 106.29C133.122 106.644 133.917 108.132 134.2 109.857C134.723 113.045 135.162 116.247 135.609 119.449C135.955 121.921 136.249 124.401 136.593 126.873C136.789 128.269 137.029 129.657 137.232 131.052C137.257 131.269 137.193 131.497 137.162 131.834ZM127.446 112.434L127.046 112.358L124.053 120.165C125.429 120.566 126.715 120.353 128.215 120.349C127.951 117.633 127.699 115.035 127.446 112.434Z" fill="#2A2C31"/>
<path d="M142.784 106.044H144.082C148.233 106.044 152.389 105.91 156.532 106.093C159.482 106.223 162.251 107.164 162.973 110.517C163.206 111.682 163.25 112.877 163.104 114.056C162.945 115.45 162.597 116.838 162.184 118.185C161.161 121.527 158.742 122.782 155.631 122.927C153.424 123.031 151.206 122.948 148.754 122.948C148.557 123.547 148.255 124.167 148.146 124.816C147.851 126.571 147.643 128.343 147.381 130.105C147.299 130.66 147.152 131.207 147.03 131.782H139.12C140.353 123.113 141.567 114.596 142.784 106.044ZM149.274 116.766C149.632 116.925 150.032 117.244 150.44 117.258C151.409 117.283 152.407 117.275 153.341 117.061C153.828 116.946 154.423 116.429 154.58 115.963C154.9 114.986 155.032 113.927 155.089 112.893C155.111 112.508 154.794 111.857 154.484 111.744C153.031 111.217 151.541 111.388 150.027 111.68C149.776 113.36 149.544 114.917 149.271 116.767L149.274 116.766Z" fill="#2A2C31"/>
<path d="M46.3079 131.891C41.6638 131.891 37.3019 131.99 32.9469 131.852C30.7139 131.783 28.8171 129.878 28.411 127.743C28.0177 125.696 28.645 123.786 28.7827 121.819C28.9243 119.811 29.2851 117.813 29.6676 115.832C30.0964 113.598 29.9479 111.246 31.0197 109.141C31.9115 107.387 33.3284 106.165 35.2665 106.08C39.9214 105.873 44.5861 105.883 49.2469 105.812C49.4967 105.812 49.7474 105.922 50.1545 106.018C49.8595 107.977 49.5783 109.852 49.2813 111.831C48.8487 111.86 48.4947 111.905 48.1319 111.906C45.7474 111.912 43.3619 111.906 40.9765 111.906C38.591 111.906 38.0158 112.444 37.8653 114.828C37.8427 115.191 37.8653 115.558 37.8653 116.178H47.1555C46.9588 118.128 46.7966 119.799 46.6245 121.536C43.9224 121.536 41.473 121.565 39.0246 121.522C38.0531 121.504 37.3009 121.793 36.7011 122.658C36.6028 123.549 36.4976 124.513 36.3727 125.659C39.9371 126.284 43.4317 125.784 47.1269 126.067L46.3079 131.891Z" fill="#2A2C31"/>
<path d="M172.216 111.999H165.492C165.07 111.048 165.498 107.15 166.222 105.851C173.443 105.798 180.823 105.759 188.424 105.887C188.107 108.05 187.834 109.926 187.551 111.845H180.828C180.582 112.359 180.173 112.88 180.087 113.449C179.719 115.915 179.473 118.398 179.128 120.867C178.779 123.361 178.353 125.846 177.989 128.339C177.847 129.306 177.783 130.285 177.675 131.327L177.199 131.837C173.882 132.117 170.095 131.946 169.53 131.477C170.419 125.051 171.306 118.609 172.216 111.999Z" fill="#2A2C31"/>
<path d="M154.45 53.3639C154.176 51.9001 155.862 50.0598 157.358 49.8887C162.162 49.3412 166.781 48.0799 171.093 45.8581C172.682 45.0383 174.203 44.0719 175.697 43.0839C178.262 41.3851 181.473 42.8617 181.652 45.9171C181.73 47.2551 181.075 48.3483 179.98 49.0983C175.26 52.3307 170.135 54.696 164.555 55.9956C162.464 56.4871 160.339 56.9039 158.205 57.1104C156.275 57.2972 154.232 55.5326 154.45 53.3639Z" fill="#2A2C31"/>
<path d="M134.456 91.3191C134.326 86.4247 133.207 81.6071 131.165 77.157C130.413 75.5113 130.772 73.4321 132.032 72.447C133.453 71.3342 135.65 71.3195 136.989 72.564C137.537 73.0713 137.961 73.8204 138.192 74.539C139.266 77.8884 140.463 81.2239 141.203 84.646C141.776 87.3003 141.816 90.0785 141.951 92.8055C142.049 94.8543 140.251 96.61 138.261 96.6317C136.365 96.6533 134.537 94.8395 134.459 92.8488C134.439 92.3415 134.456 91.8303 134.456 91.3191Z" fill="#2A2C31"/>
<path d="M101.426 150.401H99.4054C99.6788 148.595 99.9423 146.856 100.206 145.117L99.9826 145.008L95.5745 150.423H93.4585C93.9275 147.397 94.3867 144.44 94.8597 141.393H96.8784C96.6188 143.17 96.3641 144.918 96.1085 146.666L96.3051 146.765L100.699 141.336H102.82C102.354 144.357 101.899 147.317 101.426 150.401Z" fill="#2A2C31"/>
<path d="M1.88893 141.303C3.5792 141.303 5.16918 141.223 6.74736 141.324C8.43469 141.432 9.14069 143.546 8.06202 145.088C7.92731 145.284 7.75228 145.445 7.53104 145.698C8.39732 146.681 8.51433 147.861 7.89683 148.942C7.53498 149.573 6.78473 150.318 6.14166 150.388C4.30979 150.585 2.4435 150.457 0.423828 150.457C0.920389 147.353 1.39925 144.36 1.88893 141.303ZM6.01186 146.602L3.18785 146.472L2.80437 148.68C5.50547 149.102 6.46123 148.715 6.01186 146.602ZM3.60772 142.998C3.54872 143.687 3.50054 144.243 3.43564 145.002L6.24293 144.759C6.35995 144.192 6.47401 143.638 6.60675 142.998H3.60772Z" fill="#2A2C31"/>
<path d="M137.2 150.409C137.486 148.534 137.75 146.796 138.016 145.057L137.792 144.978L133.368 150.42H131.233C131.714 147.391 132.185 144.424 132.67 141.376H134.68C134.415 143.141 134.155 144.862 133.894 146.587L134.117 146.725L138.52 141.335H140.613C140.137 144.388 139.67 147.381 139.196 150.412L137.2 150.409Z" fill="#2A2C31"/>
<path d="M165.291 148.75C165.684 146.311 166.078 143.864 166.481 141.363H168.571C168.163 143.841 167.768 146.247 167.363 148.71L168.533 148.921C168.361 150.028 168.192 151.111 168.012 152.264H166.216C166.3 151.704 166.379 151.165 166.482 150.474H159.586C160.078 147.35 160.541 144.379 161.013 141.357H163.078C162.699 143.831 162.329 146.247 161.947 148.749L165.291 148.75Z" fill="#2A2C31"/>
<path d="M182.516 150.38H180.502C180.672 149.11 180.842 147.839 181.02 146.507H177.626C177.385 147.821 177.151 149.098 176.909 150.415H174.844C175.345 147.344 175.835 144.35 176.319 141.357H178.367C178.207 142.496 178.055 143.577 177.893 144.731H181.308C181.479 143.626 181.647 142.544 181.827 141.389H183.892C183.443 144.346 182.992 147.28 182.516 150.38Z" fill="#2A2C31"/>
<path d="M90.2062 141.347H92.1846C91.7313 144.383 91.2839 147.376 90.8306 150.408H88.7657C88.9623 149.117 89.1521 147.872 89.3557 146.535H85.8797C85.6703 147.783 85.454 149.068 85.2288 150.41H83.1914C83.6693 147.335 84.1344 144.334 84.6005 141.332H86.6447C86.508 142.445 86.3763 143.522 86.2327 144.699H89.5848C89.7765 143.66 89.981 142.563 90.2062 141.347Z" fill="#2A2C31"/>
<path d="M57.5206 150.408H55.4341C55.9405 147.333 56.4331 144.337 56.9218 141.363H58.9454C58.791 142.48 58.6445 143.532 58.4842 144.694H61.8904L62.499 141.352H64.5089C64.0261 144.399 63.5541 147.393 63.0762 150.418H61.0929C61.2699 149.112 61.438 147.862 61.618 146.532H58.202L57.5206 150.408Z" fill="#2A2C31"/>
<path d="M18.1006 150.437C18.0505 149.951 18.0023 149.518 17.9541 149.017C20.1242 148.328 20.3877 146.355 20.9109 144.554C21.0888 143.941 21.2285 143.318 21.3956 142.701C21.4903 142.333 21.6997 142.005 21.9935 141.764C22.2873 141.523 22.6503 141.382 23.0298 141.361C24.5736 141.245 26.1331 141.325 27.7005 141.325C27.2088 144.406 26.7368 147.384 26.255 150.41H24.1783C24.5844 147.966 24.9777 145.593 25.4055 143.016L23.5048 142.926C23.1115 144.26 22.8057 145.567 22.3189 146.801C21.9433 147.751 21.3946 148.653 20.8096 149.498C20.197 150.38 19.2589 150.644 18.1006 150.437Z" fill="#2A2C31"/>
<path d="M124.596 146.531C124.385 147.84 124.181 149.117 123.971 150.419H121.906C122.362 147.424 122.814 144.462 123.283 141.404H125.332L124.877 144.619C125.853 144.983 126.439 144.75 127.158 143.635C127.65 142.875 128.098 142.085 128.561 141.315H130.865L127.989 145.759C128.496 147.161 129.053 148.705 129.66 150.39H127.479C127.312 149.748 127.127 149.014 126.933 148.287C126.555 146.865 126.05 146.454 124.596 146.531Z" fill="#2A2C31"/>
<path d="M151.098 141.347L147.755 145.791C148.435 147.339 149.082 148.809 149.773 150.381H147.615C147.124 149.246 146.613 148.052 146.014 146.663L143.156 150.431H140.731L144.283 145.653L142.457 141.383H144.585L146.083 144.795L148.72 141.347H151.098Z" fill="#2A2C31"/>
<path d="M65.7812 150.386C66.2522 147.317 66.7085 144.345 67.1677 141.35H69.2542C69.1087 142.41 68.9681 143.434 68.8206 144.506C69.6446 144.57 70.4332 144.541 71.1805 144.703C73.213 145.159 73.8354 146.356 73.2454 148.366C72.8521 149.688 72.0861 150.458 70.6515 150.485C69.8717 150.501 69.092 150.636 68.3132 150.623C67.5345 150.61 66.7577 150.484 65.7812 150.386ZM68.1313 148.679C70.6593 149.206 71.4617 148.612 71.1166 146.444H68.4548C68.3378 147.251 68.2346 147.969 68.1313 148.679Z" fill="#2A2C31"/>
<path d="M36.9366 141.299C36.793 141.936 36.6917 142.388 36.5668 142.943H32.1332C32.0221 143.574 31.9257 144.122 31.8126 144.766H35.6475V146.437H31.616C31.4783 147.26 31.3642 147.942 31.2227 148.767H35.6671C35.7015 149.271 35.7281 149.658 35.7527 150.014C35.1509 150.512 33.9503 150.661 30.9768 150.436C30.3397 150.387 29.7359 149.901 29.0103 149.568C29.2757 147.708 29.5166 146.014 29.7595 144.321C29.7644 144.288 29.7959 144.261 29.8038 144.228C30.5157 141.303 30.5157 141.303 33.5403 141.303L36.9366 141.299Z" fill="#2A2C31"/>
<path d="M114.097 141.336H116.191C116.023 142.4 115.867 143.4 115.699 144.46C116.608 144.569 117.54 144.622 118.446 144.804C119.905 145.099 120.337 145.669 120.341 147.104C120.347 149.405 119.302 150.524 116.873 150.62C115.564 150.671 114.247 150.514 112.743 150.442C113.207 147.365 113.643 144.396 114.097 141.336ZM115.403 146.448C115.27 147.205 115.137 147.961 114.993 148.782H117.4C118.173 148.166 118.521 147.465 117.99 146.448H115.403Z" fill="#2A2C31"/>
<path d="M17.3009 142.95H12.8662C12.7286 143.576 12.6086 144.117 12.4611 144.79H16.4985C16.3825 145.409 16.293 145.886 16.1907 146.43H12.2802C12.1553 147.199 12.0393 147.915 11.8997 148.77H16.4444C16.3687 149.404 16.3087 149.903 16.2419 150.461C14.5821 150.461 13.0472 150.545 11.5299 150.419C10.94 150.37 10.3834 149.849 9.72168 149.495C9.9852 147.674 10.1071 145.984 10.4896 144.355C11.2114 141.284 11.2763 141.298 14.5467 141.299C15.5467 141.299 16.5477 141.299 17.6411 141.299C17.5054 141.959 17.414 142.403 17.3009 142.95Z" fill="#2A2C31"/>
<path d="M53.3603 148.784V150.436C51.6445 150.436 49.9512 150.502 48.2678 150.408C47.4281 150.361 46.8244 149.425 46.9375 148.516C47.1675 146.648 47.4232 144.78 47.7575 142.92C47.9198 142.021 48.5864 141.381 49.4979 141.332C51.1548 141.243 52.8195 141.307 54.611 141.307C54.555 141.897 54.5127 142.376 54.4557 142.949H50.0083L49.496 144.817H53.6582L53.3151 146.438H49.3652C49.26 147.208 49.1626 147.922 49.0437 148.788L53.3603 148.784Z" fill="#2A2C31"/>
<path d="M103.374 150.037C103.542 149.517 103.675 149.109 103.788 148.759H108.025C108.737 148.293 108.91 147.61 108.491 146.653L105.311 146.413C105.424 145.921 105.527 145.473 105.64 144.988L108.709 144.775L109.161 142.977H105.083C104.985 142.485 104.91 142.073 104.845 141.731C104.953 141.588 104.987 141.495 105.035 141.486C106.66 141.181 108.28 141.035 109.916 141.458C111.453 141.851 111.476 143.733 110.746 145.037C110.616 145.27 110.426 145.469 110.246 145.707C110.862 146.816 110.993 147.998 110.419 149.098C110.138 149.638 109.513 150.305 108.99 150.355C107.381 150.51 105.745 150.406 104.12 150.373C103.912 150.372 103.703 150.192 103.374 150.037Z" fill="#2A2C31"/>
<path d="M41.8832 150.423H39.8409C40.2204 147.966 40.5901 145.564 40.9736 143.079L38.0503 142.948C38.1142 142.353 38.1663 141.867 38.2224 141.351H46.3434L46.009 142.987H43.1162C42.6973 145.512 42.2902 147.969 41.8832 150.423Z" fill="#2A2C31"/>
<path d="M171.627 141.336H173.684C173.2 144.359 172.724 147.333 172.235 150.38H170.158C170.651 147.352 171.134 144.376 171.627 141.336Z" fill="#2A2C31"/>
</svg>
