<svg width="197" height="67" viewBox="0 0 197 67" fill="none" xmlns="http://www.w3.org/2000/svg">
<path fill-rule="evenodd" clip-rule="evenodd" d="M189.34 21.1429H180.068V60.3374C180.072 61.0885 179.921 61.8325 179.624 62.5236C179.056 63.8427 177.996 64.8933 176.665 65.4559C175.978 65.7461 175.239 65.8956 174.492 65.8956C173.745 65.8956 173.005 65.7461 172.318 65.4559C171.657 65.172 171.052 64.7725 170.533 64.2765C170.007 63.7644 169.59 63.1526 169.308 62.4775C169.025 61.8025 168.883 61.078 168.889 60.3472V21.1429H152.541V19.4845C152.533 18.5111 152.727 17.5464 153.11 16.65C153.854 14.8931 155.263 13.4952 157.036 12.7566C157.935 12.3683 158.906 12.1718 159.886 12.1799H196.672V13.8741C196.669 15.8027 195.899 17.6524 194.528 19.0219C193.867 19.6768 193.086 20.2009 192.227 20.5662C191.316 20.9578 190.332 21.1543 189.34 21.1429ZM46.6426 65.8762V30.9692C46.6943 28.1969 46.1636 25.4441 45.0841 22.8859C44.1304 20.6515 42.6846 18.6567 40.8525 17.0475C39.9283 16.2571 38.9271 15.5597 37.8637 14.9656C36.7462 14.349 35.5714 13.8406 34.3555 13.4473C33.0664 13.0459 31.747 12.7474 30.4099 12.5546C28.9935 12.361 27.5653 12.2652 26.1356 12.2679C23.3425 12.2459 20.5622 12.6436 17.8894 13.4473C15.5285 14.2165 13.344 15.4399 11.4614 17.0475C10.5437 17.8235 9.72246 18.705 9.01515 19.6735C8.29767 20.6751 7.69448 21.7526 7.21664 22.8859C6.16807 25.4521 5.65147 28.2011 5.69761 30.9692V53.7529C5.64803 54.1147 5.5655 54.4713 5.45101 54.8183C5.20995 55.5513 4.80281 56.22 4.26077 56.7731C3.73734 57.2563 3.09412 57.5936 2.39649 57.7505C1.6347 57.9204 0.856018 58.0045 0.0751953 58.0014V66.1466C1.26404 66.3964 2.47672 66.5176 3.69195 66.5082C5.47337 66.5392 7.24702 66.2681 8.93624 65.7067L9.00858 65.6839C9.63605 65.5625 10.2488 65.3758 10.8367 65.1268C11.9802 64.6383 13.0199 63.9396 13.9011 63.0677C14.7853 62.2009 15.4871 61.1688 15.9659 60.0312C16.469 58.8714 16.7264 57.6217 16.7221 56.3593V30.9692C16.7221 27.4787 17.5617 24.9516 19.2407 23.3877C20.9143 21.7945 23.2323 21.0028 26.1717 21.0028C29.1112 21.0028 31.4785 21.7945 33.1258 23.3877C34.773 24.9809 35.5687 27.4798 35.5687 30.9692V56.3593C35.5599 57.6246 35.8187 58.8776 36.3282 60.0377C36.8214 61.1675 37.5215 62.1971 38.3931 63.0742C39.2701 63.9466 40.3067 64.6454 41.4476 65.1333C42.6359 65.6375 43.9163 65.8936 45.209 65.8859L46.6426 65.8762ZM96.6623 65.8762V30.9692C96.714 28.1969 96.1833 25.4441 95.1038 22.8859C94.1513 20.6517 92.7066 18.6569 90.8755 17.0475C89.9502 16.2585 88.9491 15.5613 87.8867 14.9656C86.7681 14.349 85.5921 13.8406 84.3752 13.4473C83.0861 13.0459 81.7667 12.7474 80.4296 12.5546C79.0133 12.3609 77.585 12.2651 76.1553 12.2679C73.3622 12.2459 70.5819 12.6436 67.9091 13.4473C65.5372 14.214 63.3415 15.4375 61.4482 17.0475C60.5307 17.8227 59.7105 18.7043 59.0053 19.6735C58.2864 20.6743 57.6832 21.7519 57.2068 22.8859C56.1566 25.4516 55.64 28.201 55.6877 30.9692V65.8859H57.0654C58.3687 65.8983 59.6602 65.6397 60.8564 65.1268C62.0013 64.639 63.0423 63.9403 63.9241 63.0677C64.8072 62.2 65.5089 61.1681 65.9889 60.0312C66.4881 58.8683 66.742 57.6165 66.7353 56.3528V30.9692C66.7353 27.4787 67.5759 24.9516 69.2571 23.3877C70.9274 21.7945 73.2454 21.0028 76.1849 21.0028C79.1243 21.0028 81.4949 21.7945 83.1389 23.3877C84.7829 24.9809 85.5851 27.4798 85.5851 30.9692V56.3593C85.5764 57.6246 85.8351 58.8776 86.3447 60.0377C86.8349 61.1668 87.5316 62.1962 88.3996 63.0742C89.2754 63.9465 90.311 64.6453 91.4509 65.1333C92.6393 65.6372 93.9197 65.8934 95.2123 65.8859L96.6623 65.8762ZM146.702 12.2646V47.1846C146.753 49.9569 146.222 52.7096 145.143 55.2679C144.19 57.5018 142.744 59.4957 140.912 61.1031C139.988 61.8949 138.987 62.5934 137.923 63.1883C136.811 63.8039 135.641 64.3123 134.431 64.7065C133.142 65.1084 131.823 65.4059 130.486 65.596C129.069 65.7906 127.641 65.8875 126.211 65.8859C123.418 65.9076 120.638 65.51 117.965 64.7065C115.593 63.9407 113.398 62.7159 111.507 61.1031C110.59 60.3342 109.769 59.4591 109.061 58.4966C108.342 57.4958 107.739 56.4183 107.263 55.2842C106.214 52.7181 105.697 49.969 105.744 47.2009V12.2646H107.125C108.418 12.2545 109.699 12.5119 110.886 13.0205C112.029 13.5081 113.069 14.2056 113.95 15.0764C114.835 15.9438 115.537 16.9771 116.015 18.1161C116.514 19.2789 116.766 20.531 116.755 21.7945V47.1879C116.755 50.6762 117.596 53.2034 119.277 54.7694C120.95 56.3626 123.268 57.1543 126.205 57.1543C129.141 57.1543 131.515 56.3626 133.159 54.7694C134.803 53.1762 135.605 50.6773 135.605 47.1879V21.7945C135.596 20.5303 135.855 19.2784 136.364 18.1194C136.857 16.9882 137.557 15.9574 138.429 15.0796C139.306 14.2083 140.343 13.5106 141.484 13.0238C142.671 12.5171 143.952 12.2597 145.245 12.2679L146.702 12.2646Z" fill="#1A1A18"/>
<path fill-rule="evenodd" clip-rule="evenodd" d="M120.487 55.708L118.08 64.7427L117.958 64.7068C115.586 63.941 113.392 62.7162 111.501 61.1034C110.583 60.3345 109.762 59.4594 109.055 58.4969C108.336 57.4961 107.733 56.4186 107.256 55.2845C106.208 52.7184 105.691 49.9693 105.737 47.2012V12.2649H107.118C108.411 12.2548 109.692 12.5122 110.879 13.0208C112.023 13.5084 113.062 14.2059 113.944 15.0767C114.829 15.9441 115.531 16.9774 116.009 18.1164C116.51 19.2787 116.764 20.5309 116.755 21.7948V47.1882C116.755 50.6765 117.596 53.2037 119.277 54.7697C119.647 55.123 120.053 55.4385 120.487 55.7113V55.708ZM35.5622 50.9838L46.6591 44.8196V65.8862H45.2025C43.9094 65.8919 42.629 65.6335 41.4411 65.1271C40.3002 64.6392 39.2636 63.9403 38.3866 63.068C37.515 62.1908 36.8149 61.1613 36.3217 60.0315C35.8122 58.8714 35.5534 57.6183 35.5622 56.3531V50.9773V50.9838ZM55.7174 39.7891L66.7354 33.6639V56.3596C66.7421 57.6234 66.4881 58.8751 65.989 60.038C65.509 61.1749 64.8073 62.2068 63.9242 63.0745C63.0423 63.9471 62.0014 64.6459 60.8565 65.1336C59.6689 65.6403 58.388 65.8966 57.0951 65.8862H55.7174V39.7891ZM83.8262 24.1699L92.8845 19.1362C93.7917 20.2842 94.5433 21.5449 95.1203 22.8862C96.1998 25.4444 96.7305 28.1972 96.6788 30.9695V65.8862H95.2222C93.9291 65.8916 92.6488 65.6332 91.4608 65.1271C90.318 64.6421 89.279 63.9454 88.3997 63.0745C87.5282 62.1973 86.8281 61.1678 86.3349 60.038C85.8253 58.8779 85.5666 57.6249 85.5754 56.3596V30.9695C85.5852 28.0079 85 25.7468 83.8262 24.1699Z" fill="#D03333"/>
<path d="M126.122 14.3236C129.91 14.3236 132.981 11.2808 132.981 7.52729C132.981 3.77377 129.91 0.730957 126.122 0.730957C122.334 0.730957 119.264 3.77377 119.264 7.52729C119.264 11.2808 122.334 14.3236 126.122 14.3236Z" fill="#D03333"/>
<path fill-rule="evenodd" clip-rule="evenodd" d="M94.4594 46.23H74.3733C73.7386 46.2323 73.11 46.107 72.5255 45.8618C71.413 45.3893 70.5265 44.5108 70.0496 43.4085C69.8045 42.8377 69.6782 42.2238 69.6782 41.6035C69.6782 40.9832 69.8045 40.3693 70.0496 39.7986C70.2866 39.2491 70.6206 38.746 71.036 38.3129C71.4689 37.8752 71.9864 37.5285 72.5575 37.2934C73.1286 37.0582 73.7417 36.9396 74.3601 36.9445H94.4463L94.4594 46.23Z" fill="#D03333"/>
</svg>
