<svg width="22" height="21" viewBox="0 0 22 21" fill="none" xmlns="http://www.w3.org/2000/svg">
<path d="M15.69 20.9961C14.7683 21.0011 13.8509 20.8759 12.9674 20.6243C10.0864 19.6761 7.48293 18.0824 5.37316 15.9757C3.29371 14.0367 1.66637 11.6972 0.598227 9.11128C-0.468296 6.23686 -0.10474 3.82739 1.65662 2.13841L3.15918 0.643201C3.63852 0.18578 4.30322 -0.0466489 4.97696 0.00780599C5.64798 0.0500027 6.28009 0.325495 6.75435 0.78257L9.22657 3.15339C9.75803 3.66562 10.0767 4.346 10.1234 5.06715V5.39262V5.39245C10.1667 5.86147 10.0507 6.33115 9.7932 6.73186C9.5355 7.13256 9.14974 7.44265 8.69334 7.61611L7.59455 8.03445H7.59473C7.25047 8.16121 6.97403 8.41526 6.82722 8.73952C6.65753 9.13123 6.65753 9.57189 6.82722 9.96356C7.27139 10.9606 7.91664 11.8636 8.72579 12.6211C9.60908 13.4766 10.6256 14.1954 11.7392 14.7517C12.2322 15.026 12.8313 15.0604 13.355 14.8446C13.7449 14.6682 14.0218 14.3218 14.0983 13.9148L14.2922 13.0626C14.4015 12.5376 14.7097 12.0698 15.1571 11.7493C15.6045 11.4289 16.1597 11.2786 16.7159 11.3272C17.4645 11.3853 18.1667 11.6986 18.6953 12.2104L21.1756 14.589H21.1754C21.6717 15.0267 21.9673 15.6349 21.9974 16.2808C22.0277 16.9268 21.7904 17.558 21.337 18.0367L19.8183 19.47C18.7186 20.4998 17.2259 21.0517 15.6898 20.9962L15.69 20.9961ZM4.80776 1.54952C4.6213 1.54381 4.44042 1.61091 4.30677 1.7356L2.80403 3.17652C1.49532 4.42394 1.23675 6.22923 2.11731 8.53036C3.10374 10.9007 4.60468 13.0426 6.52038 14.8139C8.43718 16.7443 10.8088 18.2056 13.436 19.0751C15.0033 19.5322 17.1686 19.7724 18.6551 18.3547L20.1578 16.9136C20.3019 16.723 20.3645 16.4869 20.3329 16.2537C20.3014 16.0204 20.178 15.8073 19.9881 15.6584L17.5159 13.2876C17.2654 13.0514 16.9368 12.9061 16.5868 12.877C16.4196 12.8559 16.2501 12.8961 16.1125 12.9895C15.9748 13.0827 15.8786 13.2224 15.8435 13.3806L15.6577 14.2329C15.4794 15.1107 14.8809 15.8568 14.0419 16.2473C13.0688 16.6663 11.9473 16.6232 11.0123 16.1311C9.78766 15.4927 8.67081 14.6804 7.6999 13.7215C6.72446 12.821 5.94454 11.7439 5.40551 10.5527C5.06431 9.78024 5.06431 8.90812 5.40551 8.1354C5.71856 7.42412 6.31908 6.865 7.06983 6.58587L8.16862 6.17531H8.16844C8.30477 6.12032 8.41839 6.02364 8.49142 5.90034C8.56446 5.77704 8.59295 5.63402 8.57239 5.49359V5.1759C8.53723 4.8321 8.37709 4.51129 8.12011 4.26934L5.60749 1.8909C5.40966 1.70067 5.15052 1.58048 4.87225 1.54987L4.80776 1.54952Z" fill="#18191A"/>
</svg>
