<svg width="22" height="19" viewBox="0 0 22 19" fill="none" xmlns="http://www.w3.org/2000/svg">
<path d="M3.9285 19.0001H18.0714C19.1134 19.0001 20.1125 18.583 20.8493 17.8406C21.5861 17.0981 22 16.0914 22 15.0414V3.95736C21.9979 2.88501 21.5642 1.8593 20.7979 1.11513C20.6522 0.977107 20.4596 0.900233 20.2597 0.900233C20.0596 0.900233 19.8672 0.977107 19.7215 1.11513L12.5714 7.73391C12.1365 8.13666 11.5672 8.36023 10.9765 8.36023C10.3857 8.36023 9.81635 8.13668 9.38142 7.73391L2.27853 1.10699C2.13279 0.968964 1.9404 0.89209 1.7403 0.89209C1.54036 0.89209 1.34779 0.968964 1.20206 1.10699C0.433895 1.8531 0 2.88198 0 3.95718V15.0413C0 16.0912 0.413904 17.098 1.15069 17.8404C1.88748 18.5828 2.88664 18.9999 3.92859 18.9999L3.9285 19.0001ZM20.1614 2.84895C20.3384 3.19109 20.4301 3.57159 20.4285 3.95736V15.0414C20.4285 15.6715 20.1802 16.2755 19.7382 16.721C19.2961 17.1664 18.6966 17.4166 18.0714 17.4166H3.92846C3.30321 17.4166 2.70377 17.1664 2.26162 16.721C1.81965 16.2755 1.57131 15.6715 1.57131 15.0414V3.95736C1.56973 3.57158 1.66146 3.19107 1.83842 2.84895L8.33652 8.88955C9.06208 9.56392 10.013 9.93843 11.0001 9.93843C11.9871 9.93843 12.938 9.56395 13.6636 8.88955L20.1614 2.84895Z" fill="#18191A"/>
<path d="M10.9994 9.93619C11.9848 9.93937 12.9356 9.56914 13.6629 8.89899L20.7896 2.26437C20.9473 2.11698 21.0381 1.91092 21.0409 1.69424C21.0444 1.47722 20.9592 1.26833 20.8052 1.11637C20.0725 0.400475 19.0917 0 18.071 0H3.92808C2.90736 0 1.92661 0.400457 1.19387 1.11637C1.03988 1.26836 0.954649 1.47724 0.958155 1.69424C0.96096 1.9109 1.05181 2.11696 1.20948 2.26437L8.33616 8.8913V8.89112C9.06225 9.56427 10.0132 9.93733 10.9997 9.93629L10.9994 9.93619ZM18.998 1.77332L12.5708 7.73521C12.1359 8.13796 11.5666 8.36153 10.9759 8.36153C10.385 8.36153 9.81572 8.13797 9.38079 7.73521L2.97742 1.78146C3.27732 1.6498 3.6011 1.5823 3.92818 1.58353H18.0711C18.3898 1.583 18.7051 1.64769 18.9981 1.77351L18.998 1.77332Z" fill="#18191A"/>
</svg>
