<svg width="108" height="23" viewBox="0 0 108 23" fill="none" xmlns="http://www.w3.org/2000/svg">
<path d="M30.352 0.599998H31.352V-0.400002H30.352V0.599998ZM30.352 23V24H31.352V23H30.352ZM0.784 23H-0.216V24H0.784V23ZM0.784 0.599998V-0.400002H-0.216V0.599998H0.784ZM5.936 0.599998H6.936V-0.400002H5.936V0.599998ZM5.936 18.776H4.936V19.776H5.936V18.776ZM13.008 18.776V19.776H14.008V18.776H13.008ZM13.008 0.599998V-0.400002H12.008V0.599998H13.008ZM18.16 0.599998H19.16V-0.400002H18.16V0.599998ZM18.16 18.776H17.16V19.776H18.16V18.776ZM25.2 18.776V19.776H26.2V18.776H25.2ZM25.2 0.599998V-0.400002H24.2V0.599998H25.2ZM29.352 0.599998V23H31.352V0.599998H29.352ZM30.352 22H0.784V24H30.352V22ZM1.784 23V0.599998H-0.216V23H1.784ZM0.784 1.6H5.936V-0.400002H0.784V1.6ZM4.936 0.599998V18.776H6.936V0.599998H4.936ZM5.936 19.776H13.008V17.776H5.936V19.776ZM14.008 18.776V0.599998H12.008V18.776H14.008ZM13.008 1.6H18.16V-0.400002H13.008V1.6ZM17.16 0.599998V18.776H19.16V0.599998H17.16ZM18.16 19.776H25.2V17.776H18.16V19.776ZM26.2 18.776V0.599998H24.2V18.776H26.2ZM25.2 1.6H30.352V-0.400002H25.2V1.6ZM53.797 18.2L54.7212 17.818L54.4657 17.2H53.797V18.2ZM43.397 18.2V17.2H42.7283L42.4728 17.818L43.397 18.2ZM41.413 23V24H42.0817L42.3372 23.382L41.413 23ZM36.101 23L35.1876 22.5929L34.5605 24H36.101V23ZM46.085 0.599998V-0.400002H45.4359L45.1716 0.192892L46.085 0.599998ZM51.205 0.599998L52.1179 0.191804L51.8533 -0.400002H51.205V0.599998ZM61.221 23V24H62.7636L62.1339 22.5918L61.221 23ZM55.781 23L54.8568 23.382L55.1123 24H55.781V23ZM52.165 14.264V15.264H53.6616L53.0889 13.8813L52.165 14.264ZM48.613 5.688L49.5369 5.30534L48.613 3.07469L47.6891 5.30534L48.613 5.688ZM45.061 14.264L44.1371 13.8813L43.5644 15.264H45.061V14.264ZM53.797 17.2H43.397V19.2H53.797V17.2ZM42.4728 17.818L40.4888 22.618L42.3372 23.382L44.3212 18.582L42.4728 17.818ZM41.413 22H36.101V24H41.413V22ZM37.0144 23.4071L46.9984 1.0071L45.1716 0.192892L35.1876 22.5929L37.0144 23.4071ZM46.085 1.6H51.205V-0.400002H46.085V1.6ZM50.2921 1.00819L60.3081 23.4082L62.1339 22.5918L52.1179 0.191804L50.2921 1.00819ZM61.221 22H55.781V24H61.221V22ZM56.7052 22.618L54.7212 17.818L52.8728 18.582L54.8568 23.382L56.7052 22.618ZM53.0889 13.8813L49.5369 5.30534L47.6891 6.07066L51.2411 14.6467L53.0889 13.8813ZM47.6891 5.30534L44.1371 13.8813L45.9849 14.6467L49.5369 6.07066L47.6891 5.30534ZM45.061 15.264H52.165V13.264H45.061V15.264ZM82.6875 4.824V5.824H83.68L83.6875 4.83157L82.6875 4.824ZM72.0315 4.824V3.824H71.0297L71.0315 4.82576L72.0315 4.824ZM72.0635 23V24H73.0653L73.0635 22.9982L72.0635 23ZM66.9115 23H65.9115V24H66.9115V23ZM66.9115 0.599998V-0.400002H65.9115V0.599998H66.9115ZM82.7195 0.599998L83.7195 0.607574L83.7271 -0.400002H82.7195V0.599998ZM82.6875 3.824H72.0315V5.824H82.6875V3.824ZM71.0315 4.82576L71.0635 23.0018L73.0635 22.9982L73.0315 4.82224L71.0315 4.82576ZM72.0635 22H66.9115V24H72.0635V22ZM67.9115 23V0.599998H65.9115V23H67.9115ZM66.9115 1.6H82.7195V-0.400002H66.9115V1.6ZM81.7195 0.592423L81.6875 4.81642L83.6875 4.83157L83.7195 0.607574L81.7195 0.592423ZM107.487 0.599998H108.487V-0.400002H107.487V0.599998ZM107.487 23V24H108.487V23H107.487ZM102.303 23H101.303V24H102.303V23ZM102.303 4.76H103.303V3.76H102.303V4.76ZM97.8227 4.76H96.8227V5.76H97.8227V4.76ZM97.8227 0.599998V-0.400002H96.8227V0.599998H97.8227ZM106.487 0.599998V23H108.487V0.599998H106.487ZM107.487 22H102.303V24H107.487V22ZM103.303 23V4.76H101.303V23H103.303ZM102.303 3.76H97.8227V5.76H102.303V3.76ZM98.8227 4.76V0.599998H96.8227V4.76H98.8227ZM97.8227 1.6H107.487V-0.400002H97.8227V1.6Z" fill="#818181"/>
</svg>
