<svg width="116" height="23" viewBox="0 0 116 23" fill="none" xmlns="http://www.w3.org/2000/svg">
<path d="M30.352 0.599998H31.352V-0.400002H30.352V0.599998ZM30.352 23V24H31.352V23H30.352ZM0.784 23H-0.216V24H0.784V23ZM0.784 0.599998V-0.400002H-0.216V0.599998H0.784ZM5.936 0.599998H6.936V-0.400002H5.936V0.599998ZM5.936 18.776H4.936V19.776H5.936V18.776ZM13.008 18.776V19.776H14.008V18.776H13.008ZM13.008 0.599998V-0.400002H12.008V0.599998H13.008ZM18.16 0.599998H19.16V-0.400002H18.16V0.599998ZM18.16 18.776H17.16V19.776H18.16V18.776ZM25.2 18.776V19.776H26.2V18.776H25.2ZM25.2 0.599998V-0.400002H24.2V0.599998H25.2ZM29.352 0.599998V23H31.352V0.599998H29.352ZM30.352 22H0.784V24H30.352V22ZM1.784 23V0.599998H-0.216V23H1.784ZM0.784 1.6H5.936V-0.400002H0.784V1.6ZM4.936 0.599998V18.776H6.936V0.599998H4.936ZM5.936 19.776H13.008V17.776H5.936V19.776ZM14.008 18.776V0.599998H12.008V18.776H14.008ZM13.008 1.6H18.16V-0.400002H13.008V1.6ZM17.16 0.599998V18.776H19.16V0.599998H17.16ZM18.16 19.776H25.2V17.776H18.16V19.776ZM26.2 18.776V0.599998H24.2V18.776H26.2ZM25.2 1.6H30.352V-0.400002H25.2V1.6ZM53.797 18.2L54.7212 17.818L54.4657 17.2H53.797V18.2ZM43.397 18.2V17.2H42.7283L42.4728 17.818L43.397 18.2ZM41.413 23V24H42.0817L42.3372 23.382L41.413 23ZM36.101 23L35.1876 22.5929L34.5605 24H36.101V23ZM46.085 0.599998V-0.400002H45.4359L45.1716 0.192892L46.085 0.599998ZM51.205 0.599998L52.1179 0.191804L51.8533 -0.400002H51.205V0.599998ZM61.221 23V24H62.7636L62.1339 22.5918L61.221 23ZM55.781 23L54.8568 23.382L55.1123 24H55.781V23ZM52.165 14.264V15.264H53.6616L53.0889 13.8813L52.165 14.264ZM48.613 5.688L49.5369 5.30534L48.613 3.07469L47.6891 5.30534L48.613 5.688ZM45.061 14.264L44.1371 13.8813L43.5644 15.264H45.061V14.264ZM53.797 17.2H43.397V19.2H53.797V17.2ZM42.4728 17.818L40.4888 22.618L42.3372 23.382L44.3212 18.582L42.4728 17.818ZM41.413 22H36.101V24H41.413V22ZM37.0144 23.4071L46.9984 1.0071L45.1716 0.192892L35.1876 22.5929L37.0144 23.4071ZM46.085 1.6H51.205V-0.400002H46.085V1.6ZM50.2921 1.00819L60.3081 23.4082L62.1339 22.5918L52.1179 0.191804L50.2921 1.00819ZM61.221 22H55.781V24H61.221V22ZM56.7052 22.618L54.7212 17.818L52.8728 18.582L54.8568 23.382L56.7052 22.618ZM53.0889 13.8813L49.5369 5.30534L47.6891 6.07066L51.2411 14.6467L53.0889 13.8813ZM47.6891 5.30534L44.1371 13.8813L45.9849 14.6467L49.5369 6.07066L47.6891 5.30534ZM45.061 15.264H52.165V13.264H45.061V15.264ZM82.6875 4.824V5.824H83.68L83.6875 4.83157L82.6875 4.824ZM72.0315 4.824V3.824H71.0297L71.0315 4.82576L72.0315 4.824ZM72.0635 23V24H73.0653L73.0635 22.9982L72.0635 23ZM66.9115 23H65.9115V24H66.9115V23ZM66.9115 0.599998V-0.400002H65.9115V0.599998H66.9115ZM82.7195 0.599998L83.7195 0.607574L83.7271 -0.400002H82.7195V0.599998ZM82.6875 3.824H72.0315V5.824H82.6875V3.824ZM71.0315 4.82576L71.0635 23.0018L73.0635 22.9982L73.0315 4.82224L71.0315 4.82576ZM72.0635 22H66.9115V24H72.0635V22ZM67.9115 23V0.599998H65.9115V23H67.9115ZM66.9115 1.6H82.7195V-0.400002H66.9115V1.6ZM81.7195 0.592423L81.6875 4.81642L83.6875 4.83157L83.7195 0.607574L81.7195 0.592423ZM115.583 18.776H116.583V17.776H115.583V18.776ZM115.583 23V24H116.583V23H115.583ZM98.6547 23H97.6547V24H98.6547V23ZM98.6547 19.64L97.9681 18.913L97.6547 19.209V19.64H98.6547ZM107.295 11.48L107.981 12.207L107.985 12.2037L107.295 11.48ZM109.151 9.24L110.039 9.69947L110.045 9.68721L109.151 9.24ZM108.703 5.304L108.068 6.07673L108.083 6.089L108.098 6.10069L108.703 5.304ZM103.391 5.144L103.808 6.05268L103.818 6.04807L103.828 6.04323L103.391 5.144ZM101.407 6.808L100.865 7.64871L101.667 8.16478L102.22 7.38924L101.407 6.808ZM97.6307 4.376L96.8008 3.81816L96.2319 4.66453L97.0893 5.21671L97.6307 4.376ZM101.247 1.336L101.674 2.2403L101.684 2.23537L101.247 1.336ZM110.879 1.048L110.47 1.96051L110.479 1.96473L110.489 1.96875L110.879 1.048ZM113.791 3.352L112.964 3.91479L112.971 3.92494L112.978 3.93491L113.791 3.352ZM114.079 10.264L114.98 10.6967L114.079 10.264ZM111.103 13.912L110.423 13.1788L110.416 13.1849L111.103 13.912ZM105.951 18.776L105.264 18.0489L103.435 19.776H105.951V18.776ZM114.583 18.776V23H116.583V18.776H114.583ZM115.583 22H98.6547V24H115.583V22ZM99.6547 23V19.64H97.6547V23H99.6547ZM99.3414 20.367L107.981 12.207L106.608 10.753L97.9681 18.913L99.3414 20.367ZM107.985 12.2037C108.928 11.3045 109.642 10.4665 110.039 9.69942L108.263 8.78058C108.019 9.25085 107.496 9.90615 106.605 10.7563L107.985 12.2037ZM110.045 9.68721C110.424 8.93012 110.631 8.14854 110.631 7.352H108.631C108.631 7.7928 108.518 8.26988 108.256 8.79279L110.045 9.68721ZM110.631 7.352C110.631 6.19782 110.216 5.19646 109.307 4.50731L108.098 6.10069C108.427 6.35021 108.631 6.71418 108.631 7.352H110.631ZM109.337 4.53127C108.489 3.83442 107.337 3.568 106.047 3.568V5.568C107.103 5.568 107.722 5.79225 108.068 6.07673L109.337 4.53127ZM106.047 3.568C104.932 3.568 103.894 3.78699 102.953 4.24476L103.828 6.04323C104.466 5.73301 105.199 5.568 106.047 5.568V3.568ZM102.973 4.23532C102.017 4.67488 101.222 5.34658 100.593 6.22676L102.22 7.38924C102.658 6.77609 103.186 6.33845 103.808 6.05268L102.973 4.23532ZM101.948 5.96728L98.1722 3.53528L97.0893 5.21671L100.865 7.64871L101.948 5.96728ZM98.4607 4.93384C99.2264 3.7946 100.287 2.8952 101.674 2.24025L100.82 0.43175C99.1347 1.22746 97.7844 2.35473 96.8008 3.81816L98.4607 4.93384ZM101.684 2.23537C103.063 1.56483 104.67 1.216 106.527 1.216V-0.784C104.416 -0.784 102.502 -0.386169 100.81 0.43663L101.684 2.23537ZM106.527 1.216C108.081 1.216 109.387 1.47506 110.47 1.96051L111.288 0.135489C109.896 -0.488396 108.3 -0.784 106.527 -0.784V1.216ZM110.489 1.96875C111.594 2.43696 112.403 3.09045 112.964 3.91479L114.617 2.78921C113.813 1.60822 112.681 0.725709 111.269 0.127247L110.489 1.96875ZM112.978 3.93491C113.547 4.7273 113.847 5.68043 113.847 6.84H115.847C115.847 5.31157 115.443 3.93937 114.603 2.76909L112.978 3.93491ZM113.847 6.84C113.847 7.91049 113.623 8.90346 113.177 9.83127L114.98 10.6967C115.559 9.49121 115.847 8.20151 115.847 6.84H113.847ZM113.177 9.83127C112.745 10.7325 111.858 11.8478 110.423 13.1788L111.783 14.6452C113.292 13.2456 114.389 11.9288 114.98 10.6967L113.177 9.83127ZM110.416 13.1849L105.264 18.0489L106.637 19.5031L111.789 14.6391L110.416 13.1849ZM105.951 19.776H115.583V17.776H105.951V19.776Z" fill="#818181"/>
</svg>
