<svg width="93" height="26" viewBox="0 0 93 26" fill="none" xmlns="http://www.w3.org/2000/svg">
<path d="M33.3042 0.00117016H34.3042V-0.99883H33.3042V0.00117016ZM33.3042 25.2012V26.2012H34.3042V25.2012H33.3042ZM0.0402033 25.2012H-0.959797V26.2012H0.0402033V25.2012ZM0.0402033 0.00117016V-0.99883H-0.959797V0.00117016H0.0402033ZM5.8362 0.00117016H6.8362V-0.99883H5.8362V0.00117016ZM5.8362 20.4492H4.8362V21.4492H5.8362V20.4492ZM13.7922 20.4492V21.4492H14.7922V20.4492H13.7922ZM13.7922 0.00117016V-0.99883H12.7922V0.00117016H13.7922ZM19.5882 0.00117016H20.5882V-0.99883H19.5882V0.00117016ZM19.5882 20.4492H18.5882V21.4492H19.5882V20.4492ZM27.5082 20.4492V21.4492H28.5082V20.4492H27.5082ZM27.5082 0.00117016V-0.99883H26.5082V0.00117016H27.5082ZM32.3042 0.00117016V25.2012H34.3042V0.00117016H32.3042ZM33.3042 24.2012H0.0402033V26.2012H33.3042V24.2012ZM1.0402 25.2012V0.00117016H-0.959797V25.2012H1.0402ZM0.0402033 1.00117H5.8362V-0.99883H0.0402033V1.00117ZM4.8362 0.00117016V20.4492H6.8362V0.00117016H4.8362ZM5.8362 21.4492H13.7922V19.4492H5.8362V21.4492ZM14.7922 20.4492V0.00117016H12.7922V20.4492H14.7922ZM13.7922 1.00117H19.5882V-0.99883H13.7922V1.00117ZM18.5882 0.00117016V20.4492H20.5882V0.00117016H18.5882ZM19.5882 21.4492H27.5082V19.4492H19.5882V21.4492ZM28.5082 20.4492V0.00117016H26.5082V20.4492H28.5082ZM27.5082 1.00117H33.3042V-0.99883H27.5082V1.00117ZM59.6798 19.8012L60.604 19.4192L60.3486 18.8012H59.6798V19.8012ZM47.9798 19.8012V18.8012H47.3111L47.0557 19.4192L47.9798 19.8012ZM45.7478 25.2012V26.2012H46.4166L46.672 25.5832L45.7478 25.2012ZM39.7718 25.2012L38.8584 24.7941L38.2313 26.2012H39.7718V25.2012ZM51.0038 0.00117016V-0.99883H50.3547L50.0905 -0.405936L51.0038 0.00117016ZM56.7638 0.00117016L57.6767 -0.407024L57.4121 -0.99883H56.7638V0.00117016ZM68.0318 25.2012V26.2012H69.5744L68.9447 24.793L68.0318 25.2012ZM61.9118 25.2012L60.9877 25.5832L61.2431 26.2012H61.9118V25.2012ZM57.8438 15.3732V16.3732H59.3404L58.7677 14.9905L57.8438 15.3732ZM53.8478 5.72517L54.7717 5.34251L53.8478 3.11186L52.9239 5.34251L53.8478 5.72517ZM49.8518 15.3732L48.9279 14.9905L48.3553 16.3732H49.8518V15.3732ZM59.6798 18.8012H47.9798V20.8012H59.6798V18.8012ZM47.0557 19.4192L44.8237 24.8192L46.672 25.5832L48.904 20.1832L47.0557 19.4192ZM45.7478 24.2012H39.7718V26.2012H45.7478V24.2012ZM40.6852 25.6083L51.9172 0.408277L50.0905 -0.405936L38.8584 24.7941L40.6852 25.6083ZM51.0038 1.00117H56.7638V-0.99883H51.0038V1.00117ZM55.8509 0.409365L67.1189 25.6094L68.9447 24.793L57.6767 -0.407024L55.8509 0.409365ZM68.0318 24.2012H61.9118V26.2012H68.0318V24.2012ZM62.836 24.8192L60.604 19.4192L58.7557 20.1832L60.9877 25.5832L62.836 24.8192ZM58.7677 14.9905L54.7717 5.34251L52.9239 6.10783L56.9199 15.7558L58.7677 14.9905ZM52.9239 5.34251L48.9279 14.9905L50.7757 15.7558L54.7717 6.10783L52.9239 5.34251ZM49.8518 16.3732H57.8438V14.3732H49.8518V16.3732ZM92.1816 4.75317V5.75317H93.1741L93.1816 4.76075L92.1816 4.75317ZM80.1936 4.75317V3.75317H79.1919L79.1936 4.75493L80.1936 4.75317ZM80.2296 25.2012V26.2012H81.2314L81.2296 25.1994L80.2296 25.2012ZM74.4336 25.2012H73.4336V26.2012H74.4336V25.2012ZM74.4336 0.00117016V-0.99883H73.4336V0.00117016H74.4336ZM92.2176 0.00117016L93.2176 0.00874519L93.2253 -0.99883H92.2176V0.00117016ZM92.1816 3.75317H80.1936V5.75317H92.1816V3.75317ZM79.1936 4.75493L79.2296 25.2029L81.2296 25.1994L81.1936 4.75141L79.1936 4.75493ZM80.2296 24.2012H74.4336V26.2012H80.2296V24.2012ZM75.4336 25.2012V0.00117016H73.4336V25.2012H75.4336ZM74.4336 1.00117H92.2176V-0.99883H74.4336V1.00117ZM91.2177 -0.00640488L91.1817 4.7456L93.1816 4.76075L93.2176 0.00874519L91.2177 -0.00640488Z" fill="#818181"/>
</svg>
