<svg width="116" height="24" viewBox="0 0 116 24" fill="none" xmlns="http://www.w3.org/2000/svg">
<path d="M30.352 0.599998H31.352V-0.400002H30.352V0.599998ZM30.352 23V24H31.352V23H30.352ZM0.784 23H-0.216V24H0.784V23ZM0.784 0.599998V-0.400002H-0.216V0.599998H0.784ZM5.936 0.599998H6.936V-0.400002H5.936V0.599998ZM5.936 18.776H4.936V19.776H5.936V18.776ZM13.008 18.776V19.776H14.008V18.776H13.008ZM13.008 0.599998V-0.400002H12.008V0.599998H13.008ZM18.16 0.599998H19.16V-0.400002H18.16V0.599998ZM18.16 18.776H17.16V19.776H18.16V18.776ZM25.2 18.776V19.776H26.2V18.776H25.2ZM25.2 0.599998V-0.400002H24.2V0.599998H25.2ZM29.352 0.599998V23H31.352V0.599998H29.352ZM30.352 22H0.784V24H30.352V22ZM1.784 23V0.599998H-0.216V23H1.784ZM0.784 1.6H5.936V-0.400002H0.784V1.6ZM4.936 0.599998V18.776H6.936V0.599998H4.936ZM5.936 19.776H13.008V17.776H5.936V19.776ZM14.008 18.776V0.599998H12.008V18.776H14.008ZM13.008 1.6H18.16V-0.400002H13.008V1.6ZM17.16 0.599998V18.776H19.16V0.599998H17.16ZM18.16 19.776H25.2V17.776H18.16V19.776ZM26.2 18.776V0.599998H24.2V18.776H26.2ZM25.2 1.6H30.352V-0.400002H25.2V1.6ZM53.797 18.2L54.7212 17.818L54.4657 17.2H53.797V18.2ZM43.397 18.2V17.2H42.7283L42.4728 17.818L43.397 18.2ZM41.413 23V24H42.0817L42.3372 23.382L41.413 23ZM36.101 23L35.1876 22.5929L34.5605 24H36.101V23ZM46.085 0.599998V-0.400002H45.4359L45.1716 0.192892L46.085 0.599998ZM51.205 0.599998L52.1179 0.191804L51.8533 -0.400002H51.205V0.599998ZM61.221 23V24H62.7636L62.1339 22.5918L61.221 23ZM55.781 23L54.8568 23.382L55.1123 24H55.781V23ZM52.165 14.264V15.264H53.6616L53.0889 13.8813L52.165 14.264ZM48.613 5.688L49.5369 5.30534L48.613 3.07469L47.6891 5.30534L48.613 5.688ZM45.061 14.264L44.1371 13.8813L43.5644 15.264H45.061V14.264ZM53.797 17.2H43.397V19.2H53.797V17.2ZM42.4728 17.818L40.4888 22.618L42.3372 23.382L44.3212 18.582L42.4728 17.818ZM41.413 22H36.101V24H41.413V22ZM37.0144 23.4071L46.9984 1.0071L45.1716 0.192892L35.1876 22.5929L37.0144 23.4071ZM46.085 1.6H51.205V-0.400002H46.085V1.6ZM50.2921 1.00819L60.3081 23.4082L62.1339 22.5918L52.1179 0.191804L50.2921 1.00819ZM61.221 22H55.781V24H61.221V22ZM56.7052 22.618L54.7212 17.818L52.8728 18.582L54.8568 23.382L56.7052 22.618ZM53.0889 13.8813L49.5369 5.30534L47.6891 6.07066L51.2411 14.6467L53.0889 13.8813ZM47.6891 5.30534L44.1371 13.8813L45.9849 14.6467L49.5369 6.07066L47.6891 5.30534ZM45.061 15.264H52.165V13.264H45.061V15.264ZM82.6875 4.824V5.824H83.68L83.6875 4.83157L82.6875 4.824ZM72.0315 4.824V3.824H71.0297L71.0315 4.82576L72.0315 4.824ZM72.0635 23V24H73.0653L73.0635 22.9982L72.0635 23ZM66.9115 23H65.9115V24H66.9115V23ZM66.9115 0.599998V-0.400002H65.9115V0.599998H66.9115ZM82.7195 0.599998L83.7195 0.607574L83.7271 -0.400002H82.7195V0.599998ZM82.6875 3.824H72.0315V5.824H82.6875V3.824ZM71.0315 4.82576L71.0635 23.0018L73.0635 22.9982L73.0315 4.82224L71.0315 4.82576ZM72.0635 22H66.9115V24H72.0635V22ZM67.9115 23V0.599998H65.9115V23H67.9115ZM66.9115 1.6H82.7195V-0.400002H66.9115V1.6ZM81.7195 0.592423L81.6875 4.81642L83.6875 4.83157L83.7195 0.607574L81.7195 0.592423ZM109.311 9.72L108.559 9.06031L107.369 10.4166L109.15 10.707L109.311 9.72ZM113.823 11.928L113.082 12.6L113.088 12.6069L113.823 11.928ZM114.367 19.768L115.214 20.2995L115.218 20.2921L114.367 19.768ZM111.231 22.392L110.806 21.4869L110.8 21.4894L111.231 22.392ZM101.439 22.776L101.168 23.7385L101.176 23.7408L101.184 23.7429L101.439 22.776ZM97.5667 20.984L96.6752 20.531L96.2871 21.2949L96.9824 21.7955L97.5667 20.984ZM99.5827 17.016L100.183 16.216L99.2304 15.5018L98.6912 16.563L99.5827 17.016ZM102.527 18.52L102.216 19.4705L102.227 19.474L102.238 19.4773L102.527 18.52ZM109.055 18.296L109.604 19.1317L109.612 19.1263L109.62 19.1207L109.055 18.296ZM103.615 13.4H102.615V14.4H103.615V13.4ZM103.615 9.976L102.865 9.31392L102.615 9.59755V9.976H103.615ZM108.223 4.76L108.972 5.42208L110.441 3.76H108.223V4.76ZM98.6867 4.76H97.6867V5.76H98.6867V4.76ZM98.6867 0.599998V-0.400002H97.6867V0.599998H98.6867ZM114.367 0.599998H115.367V-0.400002H114.367V0.599998ZM114.367 3.96L115.118 4.61969L115.367 4.33663V3.96H114.367ZM109.15 10.707C110.952 11.0008 112.227 11.6574 113.082 12.6L114.563 11.256C113.328 9.89459 111.595 9.07915 109.472 8.73303L109.15 10.707ZM113.088 12.6069C113.946 13.5346 114.391 14.6925 114.391 16.152H116.391C116.391 14.2409 115.79 12.5827 114.557 11.2491L113.088 12.6069ZM114.391 16.152C114.391 17.2681 114.101 18.292 113.515 19.2439L115.218 20.2921C115.998 19.0253 116.391 17.6386 116.391 16.152H114.391ZM113.52 19.2365C112.959 20.1307 112.077 20.8897 110.806 21.4869L111.656 23.2971C113.201 22.5716 114.41 21.5813 115.214 20.2995L113.52 19.2365ZM110.8 21.4894C109.584 22.0696 108.034 22.384 106.111 22.384V24.384C108.241 24.384 110.104 24.0371 111.661 23.2946L110.8 21.4894ZM106.111 22.384C104.619 22.384 103.147 22.1926 101.694 21.8091L101.184 23.7429C102.802 24.1701 104.445 24.384 106.111 24.384V22.384ZM101.71 21.8135C100.286 21.4124 99.1063 20.8603 98.1511 20.1725L96.9824 21.7955C98.1605 22.6437 99.5621 23.2863 101.168 23.7385L101.71 21.8135ZM98.4583 21.437L100.474 17.469L98.6912 16.563L96.6752 20.531L98.4583 21.437ZM98.9827 17.816C99.9315 18.5275 101.012 19.077 102.216 19.4705L102.837 17.5695C101.822 17.2376 100.941 16.7845 100.183 16.216L98.9827 17.816ZM102.238 19.4773C103.462 19.8468 104.711 20.032 105.983 20.032V18.032C104.908 18.032 103.853 17.8759 102.816 17.5627L102.238 19.4773ZM105.983 20.032C107.395 20.032 108.636 19.768 109.604 19.1317L108.506 17.4603C107.981 17.8053 107.173 18.032 105.983 18.032V20.032ZM109.62 19.1207C110.643 18.4193 111.175 17.3938 111.175 16.152H109.175C109.175 16.7448 108.96 17.1487 108.489 17.4713L109.62 19.1207ZM111.175 16.152C111.175 14.9367 110.687 13.916 109.676 13.252C108.738 12.6363 107.458 12.4 105.983 12.4V14.4C107.302 14.4 108.119 14.6224 108.578 14.924C108.964 15.1774 109.175 15.5326 109.175 16.152H111.175ZM105.983 12.4H103.615V14.4H105.983V12.4ZM104.615 13.4V9.976H102.615V13.4H104.615ZM104.364 10.6381L108.972 5.42208L107.473 4.09792L102.865 9.31392L104.364 10.6381ZM108.223 3.76H98.6867V5.76H108.223V3.76ZM99.6867 4.76V0.599998H97.6867V4.76H99.6867ZM98.6867 1.6H114.367V-0.400002H98.6867V1.6ZM113.367 0.599998V3.96H115.367V0.599998H113.367ZM113.615 3.30031L108.559 9.06031L110.062 10.3797L115.118 4.61969L113.615 3.30031Z" fill="#818181"/>
</svg>
